<?xml version="1.0" encoding="UTF-8" standalone="no"?>
<!-- Created with Inkscape (http://www.inkscape.org/) -->

<svg
   version="1.1"
   id="svg1"
   width="1225"
   height="1390"
   viewBox="0 0 1225 1390"
   xmlns="http://www.w3.org/2000/svg"
   xmlns:svg="http://www.w3.org/2000/svg">
  <defs
     id="defs1" />
  <g
     id="g1">
    <path
       style="fill:#171717;stroke:none"
       d="m 604.29869,278.77391 c -10.7113,0.12646 -9.93127,7.95117 -15.55713,14.90662 -3.4541,4.27038 -8.93127,6.77551 -13.44287,9.76086 -7.79034,5.15503 -14.68115,4.81665 -23,7.89197 -4.88831,1.80713 -8.79578,5.41723 -14,6.49841 -4.27576,0.88831 -8.84546,-0.93262 -12.98535,0.68445 -4.5611,1.78149 -6.45252,6.76147 -10.10803,9.69983 -3.76181,3.02368 -8.86866,3.40014 -12.57715,6.41125 -8.92746,7.24866 -15.88422,30.99536 -0.32947,33.14661 -2.55734,2.77771 -5.76593,3.47278 -8.71451,5.70215 -2.93069,2.21588 -4.97403,5.255 -8.28625,7.01928 -11.58823,6.17261 -22.68964,-1.66577 -33.99924,-3.91357 -5.2822,-1.04987 -10.81134,0.036 -16,-1.11035 -14.02744,-3.09918 -18.577,-9.0846 -31,1.30249 -0.64325,-7.08942 -6.96191,-10.54675 -8.1358,-17 -1.11112,-6.10816 8.61767,-16.39331 1.85339,-20.82483 -8.56595,-5.61182 -19.00037,2.63611 -27.71759,1.20215 -6.39536,-1.052 -22.52478,-13.83655 -27.92825,-4.09949 -2.44385,4.40381 3.73575,8.31287 5.47223,11.73682 2.2648,4.4657 1.43313,10.14197 1.45678,14.98535 0.0731,14.96527 14.42816,18.99689 18.35031,32 1.76667,5.85705 -0.0211,12.08087 -0.0116,18 0.0239,14.84582 1.60513,31.76929 9.66049,44 l -24,2 c -3.53363,-14.13129 -7.07858,-5.59448 -16.03937,-3.02393 -5.20447,1.49298 -9.13884,0.80133 -13.96064,4.02393 -8.6512,-18.00086 -25.3337,3.51996 -35,8 -1.4597,-2.82324 -4.5089,-4.4129 -5.8032,-7.20911 -1.5675,-3.38629 0.636,-7.15741 -1.9391,-10.39734 -2.7756,-3.49218 -7.928,-3.77667 -10.7199,-7.41211 -2.8825,-3.75347 1.0153,-9.10791 -4.5964,-11.37805 -9.5116,-3.84778 -19.2142,3.09461 -27.9414,5.14118 -3.9177,0.9187 -8.077,-2.19129 -11.8511,-0.39502 -5.1416,2.44714 -0.8361,9.35833 -4.0879,13.12652 -3.3273,3.85566 -10.731,-0.8468 -15.0463,-0.0424 -2.5988,0.48444 -4.6137,2.82996 -7.1844,3.08332 -3.9821,0.39245 -7.5477,-3.47931 -11.8303,-3.38044 -5.6777,0.13111 -8.943,4.1438 -14,5.47535 -3.6117,0.95099 -7.191,-1.60504 -11,-0.81098 -7.2722,1.51599 -9.6338,6.77094 -15.3248,10.28784 -5.2248,3.22876 -11.9159,-0.80627 -14.767,6.9267 -1.4849,4.02734 0.8077,18.66168 5.3202,20.29089 3.1712,1.14496 7.5151,-0.97753 10.7716,-1.21606 5.9113,-0.43292 11.2674,0.72711 17,1.90973 v 2 c -3.6675,0.58374 -8.5693,-0.90338 -11.8511,1.02856 -5.6384,3.31928 -3.3638,12.05292 1.8511,13.97144 l 1,-4 7,1 3,10 c -7.0118,0.004 -16.3422,-0.46906 -22.9846,1.85419 -2.8256,0.98828 -6.9686,4.16186 -4.1134,7.40741 2.5152,2.859 7.1917,0.96655 10.3835,2.13653 3.9383,1.44367 7.7481,5.29651 10.5363,8.34723 4.1248,4.51318 0.09,11.65967 6.2368,14.93677 5.3776,2.86682 13.8459,1.9411 14.9414,-4.68213 4.8329,0.89404 9.2304,1.74072 12,-3 4.4481,2.32709 4.408,7.24036 8.277,9.85724 5.5862,3.77832 13.5399,1.22967 19.7191,2.37115 8.7522,1.61676 7.9111,9.83704 18.0039,4.77161 3.8414,7.24713 18.4472,17.93237 26.9962,18.46142 7.3842,0.45698 9.7463,-9.68426 17.0038,-1.46142 -3.3976,-0.34723 -14.5514,2.97192 -6.8472,6.39661 6.1994,2.75579 16.6609,0.34179 22.8472,-1.39661 0.5908,5.97974 -2.5429,11.776 -1.5872,17.00079 1.8938,10.35297 16.1397,16.75843 25.5872,13.99921 -0.1682,3.91638 -2.0873,9.24213 0.6042,12.60956 3.0168,3.77447 10.68298,4.26404 12.05014,9.43365 1.80356,6.81989 -11.23804,10.60156 -9.20524,18.95605 1.7819,7.323 12.1749,12.1215 16.65198,18.0007 5.20417,6.8341 5.59281,15.3475 10.53705,21.9599 6.74301,9.0182 22.56281,13.3675 32.36188,17.1883 4.81369,1.8769 7.60892,5.4461 13,5.8518 -6.84686,10.375 5.08478,17.3672 5.90588,28 0.40122,5.1956 -0.56363,11.609 -3.60882,15.9568 -3.84369,5.4879 -11.02625,8.7846 -7.55478,16.9352 2.49213,5.8513 15.18912,8.6386 20.25772,12.6258 13.40839,10.5478 19.66357,22.6892 21,39.4822 h -1 c -2.17197,-14.7064 -8.61282,-21.4551 -18.77545,-31.375 -2.67105,-2.6072 -4.95123,-10.5664 -9.95374,-6.9776 -4.27224,3.065 -6.48575,11.4676 -7.46295,16.3526 -3.12686,15.6315 -2.20868,33.0357 -4.09335,49 -0.65094,5.514 -2.67108,15.5124 -0.11112,20.6814 2.01545,4.0695 9.81366,0.6739 13.39661,4.3186 -18.07001,0.012 -13.74203,14.5241 -15.57639,28 -2.98315,21.9156 -6.03863,43.626 -11.66745,65 -1.26364,4.7984 -0.34692,10.4726 -2.22143,15.0039 -1.63553,3.9537 -4.48813,11.74061 -7.68286,14.49771 -4.88974,4.2199 -13.73059,4.5123 -16.06638,11.5131 -2.51111,7.5264 5.569,10.2666 11.21451,8.9854 l 1,6 h 17 c -3.89856,9.5026 -8.18683,27.2808 9,20 7.03653,10.9396 25.63034,6.5637 35.95679,10.6034 6.59604,2.5804 6.39477,12.05 13.05865,14.9236 8.39374,3.6195 14.91678,-6.8025 22.9838,-5.0502 6.1246,1.3304 8.71252,8.4974 13.09103,12.2446 6.72794,5.758 15.96408,2.9768 22.90973,-0.7214 5.22504,11.6249 8.457,3.5698 16.10419,4.0007 5.48694,0.3093 12.09765,4.4773 17.57794,0.8203 7.18188,-4.7924 0.49298,-21.467 16.31787,-14.6474 6.58344,2.8371 12.23163,7.2874 19,9.7716 5.77203,2.1185 13.2428,2.5052 17.60571,7.2685 5.22534,5.7049 -0.51532,16.9955 5.62268,20.4538 6.508,3.6666 17.85352,-4.0584 25.77161,-2.1343 7.67078,1.864 10.63525,11.7477 18.00079,12.8479 7.20832,1.0769 12.76636,-7.7046 19.99921,-6.162 9.53247,2.0331 15.31439,11.5169 26.95605,8.4623 5.83161,-1.5303 3.63917,-8.9547 9.07789,-10.8989 5.93603,-2.1221 24.71722,4.5555 28.89508,-1.3859 3.51568,-4.9998 -5.35907,-11.4268 -6.89661,-15.4359 -3.27234,-8.5329 -1.15283,-23.1514 0.43213,-31.9607 2.00354,-11.1355 8.08734,-28.5062 19.55011,-33.4368 4.74707,-2.0418 9.01886,2.2802 13.87659,-1.27 4.15216,-3.0344 3.53698,-8.6542 7.33715,-11.8202 3.99506,-3.3284 9.46021,-0.2611 13.58643,-3.7909 4.05054,-3.4651 5.3399,-10.0185 10.27856,-12.4638 9.51691,-4.71211 11.84534,9.6545 19.90662,10.578 5.53839,0.6345 12.81763,-2.8145 17.98071,-0.9838 4.16071,1.4752 4.06324,6.0381 7.33252,8.1597 2.83832,1.842 13.17865,3.3612 16.64356,3.4205 4.73492,0.081 5.65851,-7.4562 9.95294,-6.7615 3.26312,0.5278 3.97064,5.7735 6.36804,7.6265 5.08496,3.9303 14.16553,2.5032 19.72223,0.7423 0.25348,10.7812 7.94891,14.9709 18,12 3.05609,5.2351 7.42889,4.9963 13,5 1.66205,10.6732 12.20764,7.2778 20,7.4552 5.51398,0.1256 10.70081,-1.3834 16,-1.3518 4.08685,0.024 7.60199,2.9841 11.79089,1.1535 3.6829,-1.6094 5.3047,-5.8079 9.213,-7.3673 8.546,-3.4096 20.8338,-3.3947 13.9961,-15.8896 l 7,-10 c 10.9628,2.9888 11.2833,-3.4625 18.22376,-9.6822 3.5889,-3.2162 8.8224,-1.8193 12.591,-4.8318 4.2561,-3.40201 5.5856,-9.09381 10.2786,-12.13341 4.5163,-2.9252 13.9292,-3.0021 16.7275,-7.581 3.079,-5.0383 1.0249,-13.0741 3.3234,-18.7717 2.4293,-6.0218 11.7738,-10.7402 10.1088,-17.9961 -2.4255,-10.5694 -14.95,-5.5943 -22.2531,-6.0949 -11.099,-0.7608 -28.5912,-7.4109 -34.5393,-17.1945 -2.57076,-4.2284 1.3125,-7.3971 1.3225,-11.7145 0.014,-5.9585 -7.18206,-9.9819 -4.11106,-15.9992 2.94106,-5.7631 13.40656,-9.0692 12.70136,-16.0046 -0.3508,-3.4498 -2.4486,-13.5917 -5.6906,-15.2546 -4.1421,-2.1246 -10.50336,0.045 -14.07946,-3.4831 -3.0519,-3.0108 -0.8527,-8.4112 -1.9213,-12.115 -0.9368,-3.2472 -4.9876,-5.1072 -6.6821,-8.1435 7.7721,-1.1435 23.73126,-3.2698 29.58106,-8.6519 3.4367,-3.1621 4.7024,-9.9904 5.9798,-14.3481 1.2496,-4.2628 2.7332,-10.7445 0.4113,-14.8919 -2.3429,-4.1851 -7.4406,-3.8091 -10.615,-6.8102 -3.027,-2.8618 -0.8553,-7.7763 -3.1002,-11.2578 -2.7085,-4.2003 -9.95406,-5.6705 -11.56406,-10.253 -0.8571,-2.4398 0.1178,-6.3881 1.8959,-8.223 3.5042,-3.6162 9.50366,-2.4112 12.89346,-6.6975 5.8514,-7.3991 -1.2862,-18.6679 -9.48226,-18.8666 0.093,-2.7387 0.8568,-6.1913 -0.831,-8.5856 -1.4341,-2.0343 -4.7964,-2.7806 -5.1358,-5.547 -0.3906,-3.1845 2.9505,-5.8154 3.4784,-8.8674 0.5292,-3.0596 -2.7706,-11.6511 -4.1497,-14.5663 -1.7175,-3.6304 -8.1634,-2.2891 -11.3619,-2.5239 -10.0569,-0.7386 -16.5767,-6.0761 -25.9961,0.7284 -10.11174,7.3044 -3.34398,11.8352 -6.39586,20.3472 -2.453,6.8418 -11.55292,8.4441 -17.60803,10.0146 1.79492,-6.6754 20.52191,-24.0277 7,-29 4.34979,-15.0706 16.52189,-22.0672 23.68749,-35 3.2897,-5.9374 4.6459,-17.8831 9.054,-22.3973 2.0462,-2.09534 5.5727,-1.74805 7.9337,-3.49615 5.6993,-4.21973 9.7368,-11.83899 14.4945,-17.10651 4.8972,-5.42188 13.65646,-11.50147 15.37816,-18.99536 1.7637,-7.67676 -7.103,-5.56641 -11.54786,-5.00464 5.69326,-8.95715 10.72886,-10.99316 20.99996,-11 2.3399,14.66186 27.797,-6.21411 30.3921,-13.08948 2.0002,-5.29956 -3.0449,-11.46649 -3.2864,-16.91052 -0.3559,-8.02448 6.0254,-14.18109 6.4236,-22 0.3458,-6.78937 -4.9028,-13.4538 -2.9375,-20 2.4137,-8.03949 11.1058,-11.35193 13.7053,-19.00079 2.2283,-6.55664 -0.1087,-14.21851 1.1706,-20.99921 1.4924,-7.91058 6.4729,-14.48462 10.8625,-21 4.7703,-7.08026 20.8337,-22.33222 20.1273,-30.99616 -0.6008,-7.36908 -15.3792,-12.89074 -21.4575,-14.18518 -6.0195,-1.28192 -13.2989,0.72852 -18.9853,-1.42205 -6.4405,-2.43573 -8.1244,-9.67273 -16.014,-10.16742 -5.4367,-0.34089 -7.9327,5.55004 -13.0045,5.23223 -5.6463,-0.35382 -8.9213,-3.53497 -14.9962,-2.46142 -1.6871,-8.15979 -10.01276,-7.98071 -16.99996,-8 -0.8465,5.24298 -4.0494,5.25702 -7.0347,0.97607 -4.7198,-6.76819 -8.1142,-15.58398 -12.7462,-21.66205 -3.6531,-4.79351 -21.20475,-11.33282 -27.21909,-11.89202 -5.43011,-0.50489 -9.71887,4.84448 -15,3.50012 -7.48907,-1.9065 -10.68317,-9.75464 -19,-9.90283 -7.63806,-0.13611 -11.69788,6.52417 -19,5.98071 1.96521,-9.16113 -4.31909,-7.19568 -9.49072,-11.7384 -10.36762,-9.10682 -19.02021,-20.59461 -34.50928,-21.2616 0.69525,-7.97254 4.57562,-15.19861 -5,-19 1.86298,-6.33106 13.66949,-19.39783 1.98456,-23.01318 -12.38391,-3.83167 -14.50464,14.66662 -19.63349,20.86499 -3.61749,4.37182 -17.13067,4.86181 -22.34722,3.32959 -9.65088,-2.83472 -1.30036,-9.02247 -3.32636,-15.1814 -1.112,-3.38037 -5.03998,-6.20288 -4.52087,-10 0.58819,-4.30274 5.15374,-7.25281 4.30481,-11.98462 -2.21497,-12.34595 -29.28785,-9.60645 -37.46143,-7.01538 -0.10468,-12.65027 -3.38965,-12.69373 -12.79089,-18.02234 -2.32807,-1.31958 -3.55994,-4.23401 -6.3133,-4.85657 -2.97924,-0.67358 -6.5672,3.177 -9.1535,1.13123 -2.29443,-1.81494 -1.99481,-6.64502 -2.56177,-9.25232 -1.29761,-5.96716 -3.72912,-16.27258 -8.52081,-20.34717 -9.59955,-8.16284 -11.96735,5.45703 -19.67438,5.63501 -7.07977,0.16345 -14.96869,-9.22388 -21.98535,-11.28784 3.68536,-7.33167 4.10132,-28.42078 -7.01544,-30.63892 -5.23981,-1.04553 -12.69751,3.57959 -17.98456,4.63892 -17.00055,3.40625 -42.96149,3.8064 -52.82098,21.13269 -2.86023,5.02637 0.12481,13.24573 -0.2685,18.86731 -0.66058,9.44189 0.64563,18.61536 0,28 -0.80707,11.73108 -3.99298,18.74695 1.08948,30 m 139,-34 c 3.13068,5.83911 6.9035,6.1272 13,5 l 4,18 c 4.42529,-1.61292 8.30676,-2 13,-2 5.03174,0 22.46729,-0.87866 22.17206,7.01855 -0.16358,4.37549 -5.06195,7.34021 -4.52472,11.98145 0.44879,3.87744 4.86938,6.13562 5.02319,10 0.28388,7.13269 -6.13299,10.65491 3.33332,15.86035 7.65246,4.20801 25.24298,2.45947 30.294,-4.87573 2.60578,-3.78418 7.46601,-22.20178 15.22528,-17.69678 4.94574,2.87146 -4.2204,12.15637 -4.64581,15.71143 -0.54089,4.52002 4.2229,6.29467 5.47687,10.09021 1.21246,3.67004 -1.93354,7.19482 -0.70758,10.86657 1.85754,5.56348 9.02057,4.91895 13.35339,7.16895 11.78973,6.12219 18.77911,17.6947 31,21.875 -0.65289,4.97339 1.05353,9.38269 7,8.97375 5.40509,-0.3717 8.35107,-5.73938 14.00079,-5.9143 8.39563,-0.25989 12.09925,8.61377 19.99921,10.20831 5.54681,1.11957 9.53857,-4.40839 15,-3.7724 8.42749,0.98145 17.13909,7.46863 24.99999,10.50464 -0.9571,5.88324 12.3135,26.48114 18.9962,27.1991 4.4087,0.47363 5.8551,-4.78016 10.0532,-4.74616 5.62726,0.0456 5.06606,5.49487 9.17816,7.31098 3.2521,1.43627 11.9201,2.37872 15.7724,2.88806 5.9568,0.78759 8.3661,-5.93164 14,-5.24921 6.0328,0.73077 7.6476,7.7807 13.0039,9.85492 5.7671,2.23328 12.9419,0.11487 18.9961,1.20685 7.4263,1.33948 13.6151,5.76935 20,9.53546 -1.007,6.04175 -6.3055,10.0741 -10,15 -7.011,9.34802 -15.5676,20.36243 -20,31 -3.2017,7.68408 1.5344,22.19836 -3,29 -3.6528,5.47931 -10.9576,9.8728 -13,16 -1.1869,3.56079 -1.6869,7.67175 1,7 -0.2635,5.18414 2.5496,9.75818 1.6705,15 -1.1184,6.66998 -5.6939,12.22266 -6.4853,19 -0.7199,6.16467 3.6667,11.30933 3.2339,16.98535 -0.6601,8.65454 -15.0554,15.92639 -22.4191,17.01465 -4.872,-9.65973 -20.2704,-3.97278 -25.19976,3.00384 -1.8606,2.63331 -5.0547,8.56952 -0.5572,10.49231 2.465,1.05384 6.17166,-0.27813 8.75696,-0.49615 -4.1486,10.70795 -18.85506,25.84155 -27.46366,33.68213 -3.1635,2.88122 -8.038,1.92798 -10.6783,5.54626 -7.4663,10.23207 -6.098,23.82397 -16.89424,33.30787 -6.26423,5.5029 -22.19336,23.9033 -10.96375,30.4637 -1.03162,4.4569 -2.31158,9.8079 -5.07098,13.5448 -2.51526,3.4063 -8.41944,7.2218 -7.11267,12.3063 2.15246,8.3753 19.22174,-2.087 22.1397,-4.9444 7.09064,-6.9437 -0.11102,-11.0097 3.38034,-17.8164 6.4805,-12.6341 25.9643,-7.2529 36.6636,-4.0903 -0.7915,4.8321 3.1331,6.8322 3.0579,11.0895 -0.063,3.573 -3.6153,6.2115 -3.3997,9.9067 0.21,3.5988 3.5806,4.9048 5.3156,7.598 3.6477,5.6623 1.3355,10.123 10.02616,10.4058 0.5143,3.4335 3.3456,8.4675 1.7168,11.7724 -1.9098,3.875 -7.28736,3.3868 -10.67276,4.9306 -4.6495,2.1201 -6.2335,8.4995 -5.8063,13.2816 0.5392,6.0363 8.0799,7.0108 11.4405,11.1204 2.94256,3.5983 0.66566,8.0409 3.22996,11.6813 2.6195,3.7187 7.6973,3.3714 10.4884,6.6436 4.2894,5.0286 -0.66,22.1917 -5.6242,25.6319 -7.6677,5.3136 -20.15586,2.4558 -27.43976,8.9082 -4.3892,3.8881 0.041,9.8217 4.6674,10.03 0,14.1772 3.3304,18.3703 17.99996,19 l 4,14 c -5.6432,3.5866 -16.33856,11.0052 -14.44206,19 0.8731,3.6813 4.6137,6.1767 4.9837,10 0.4286,4.4292 -4.2825,7.3989 -2.3225,12 5.26886,12.3687 25.17636,20.477 37.78086,21.8265 4.4888,0.4805 19.177,-3.7415 20.0787,3.2321 0.6137,4.7457 -7.7962,11.2765 -9.611,15.9414 -1.845,4.7425 -0.5793,13.6401 -3.4954,17.4006 -2.9271,3.7746 -11.8422,4.2377 -15.9321,7.2484 -4.0323,2.9682 -5.5825,7.8233 -9.25,11.0332 -3.1976,2.7984 -7.2246,1.6268 -10.747,3.4969 -4.56436,2.42321 -5.13776,8.14971 -9.25606,10.88421 -2.8732,1.9077 -5.7995,0.025 -8.7439,1.1729 -5.5605,2.1679 -13.1,13.2779 -8.0432,17.7639 -3.5474,6.7806 -11.0272,5.0129 -16.9568,8.4175 -2.7164,1.5595 -4.377,5.0892 -7.2523,6.1797 -3.26184,1.2371 -6.45202,-2.0011 -9.79089,-1.8549 -8.93164,0.3911 -19.79779,4.7057 -28.85571,1.8241 -3.23877,-1.0304 -3.60718,-4.7279 -6.37189,-6.3882 -3.22797,-1.9385 -9.23053,-3.5906 -12.86188,-5 -3.4519,-1.3398 -7.3092,0.5752 -10.80176,-0.9205 -5.81726,-2.4914 -1.73681,-10.7545 -6.45288,-12.9552 -2.38177,-1.1115 -6.12481,2.1708 -8.65973,2.3943 -14.31127,1.2618 -16.89666,-20.1479 -27.99615,-2.6968 l -16,-3 c -3.49194,-16.94731 -17.40729,-5.274 -27.86652,-8.5765 -7.71478,-2.4358 -10.83673,-16.98901 -22.11804,-8.90891 -4.474,3.20441 -5.78149,9.74441 -10.34418,12.45381 -4.28778,2.546 -9.24243,-0.2815 -13.52697,3.4513 -3.52973,3.0752 -2.90113,8.9195 -6.5741,11.5163 -4.34912,3.0747 -9.47223,-1.9886 -14.5694,1.6372 -19.4801,13.8575 -23.55322,41.153 -21.91052,63.4268 0.54944,7.4501 6.07611,11.2745 7.90973,18 -9.34601,-0.7118 -34.63293,-4.7996 -33,10 -4.88763,1.4313 -12.29279,1.1256 -16.91052,-1.3032 -4.57947,-2.4087 -7.30719,-7.1153 -13.08948,-6.7115 -5.80347,0.4053 -13.18512,8.3006 -18.81555,5.7308 -6.45453,-2.9461 -8.2862,-10.2103 -16.18445,-12.0356 -6.05499,-1.3993 -20.36798,4.8693 -24.38196,2.1875 -2.55267,-1.7054 -0.55768,-7.3199 -0.81787,-9.868 -0.59643,-5.8414 -4.63611,-10.8468 -9.80017,-13.4421 -5.02978,-2.5279 -10.86145,-2.7825 -16,-5.0726 -9.68518,-4.3164 -30.68024,-21.0813 -35.58105,-1.4853 -0.64258,2.5693 -0.41718,5.3744 -0.41895,8 -8.3844,0.6385 -17.24066,-5.5543 -23,2 l -9.59027,-6.7291 -17.31946,1.8711 -18.09027,-14.7577 -20.89505,5.5023 -12.1983,-14.5687 -31.79785,-6.5779 -7.1088,-9.74 c -1.12732,2.8755 -8.13162,11.1326 -9.58874,3.8518 -0.98502,-4.9216 3.85131,-9.0176 3.62579,-13.8086 -0.34516,-7.333 -11.15701,-8.0674 -16.03705,-6.0432 -2.61673,-3.4039 -13.35641,-4.2634 -12.10956,-8.8341 1.47846,-5.4198 11.07929,-6.593 14.97608,-9.8033 3.72757,-3.0708 6.87277,-11.83651 8.58563,-16.36271 1.72394,-4.5554 0.95697,-10.19 2.17825,-15.0007 7.00614,-27.598 8.66287,-55.0508 12.55863,-82.9985 1.23339,-8.8483 14.23776,-4.7759 14.05944,-12.0046 -0.16641,-6.7464 -8.91671,-6.0245 -13.24847,-4.9962 0,-15.9251 2.32568,-31.2003 3.83023,-47 1.20346,-12.6376 0.54773,-22.1216 6.16977,-34 5.26047,6.2472 13.66986,10.8786 17.58331,18 5.20163,9.4656 4.45151,23.641 15.41669,29 -0.002,-18.286 -3.60956,-35.8418 -17.01465,-48.9606 -4.89166,-4.7872 -10.78241,-9.2089 -16.98535,-12.1489 -2.99628,-1.4201 -7.7695,-2.2817 -8.66281,-6.0224 -1.25644,-5.2613 4.23224,-7.4547 6.80942,-10.9722 2.7807,-3.7954 4.18469,-9.2713 4.67978,-13.8959 1.13415,-10.5938 -8.20926,-17.0553 -8.19831,-26 0.004,-3.3123 6.4263,-8.2293 3.63504,-11.3032 -2.03576,-2.242 -6.58957,0.2369 -9.26312,-0.8025 -8.64969,-3.3626 -15.84122,-8.2259 -24.00076,-12.3364 -4.96039,-2.4989 -10.37662,-3.0475 -14.0062,-7.743 -4.67447,-6.0473 -4.77475,-14.4565 -9.67358,-20.8149 -4.1564,-5.3947 -14.97867,-11.4116 -16.58258,-18 -2.16249,-8.88277 16.69275,-12.75765 7.03473,-22.78701 -1.37009,-1.42279 -3.05332,-2.46802 -4.77085,-3.41278 -2.25781,-1.242 -4.53997,-2.09131 -7.00077,-2.80017 0.076,-3.69397 2.3528,-10.42139 -0.029,-13.57794 -1.8762,-2.48688 -6.2991,-0.54077 -8.9715,-1.36957 -8.4349,-2.61597 -11.6926,-3.75909 -17,-11.05249 v -1 c 5.1237,-4.4079 7.0901,-14.29797 -1.108,-17.78784 -3.4905,-1.4859 -9.9813,0.77704 -13.892,0.78784 3.8312,-11.49719 -11.9916,-14.12598 -17,-5 -11.1048,-3.19891 -25.691,-21.54938 -36,-16 -6.5998,-11.17719 -15.8234,-5.4101 -25.9421,-8.57251 -4.7562,-1.48645 -4.3803,-7.04895 -8.1914,-9.68054 -4.6845,-3.23468 -18.6426,2.65216 -20.8665,7.25305 -14.8873,-0.01 -6.4279,-9.73688 -17,-16 l 1,2 h -1 c -3.0276,-6.76599 -8.3891,-8.84961 -15,-11 v 2 l -5,-2 10,-5 c 0,2.62848 14.1042,2.12891 17,0.5 4.0667,-2.28754 2.8382,-9.64478 -0.1667,-12.33331 -3.9673,-3.54969 -9.2887,-3.33527 -13.8333,-2.16669 0.7941,-10.19171 11.8026,-1.43915 14.7438,-10.00385 1.413,-4.11444 -3.6781,-6.21795 -6.7446,-7.06793 -7.8267,-2.16949 -15.6257,-0.7677 -22.9992,2.07178 -0.1169,-4.99378 -4.1336,-12.11786 -2.2184,-16.77161 2.1192,-5.14923 9.2768,-1.82885 13.0988,-4.35724 4.9213,-3.25555 6.7208,-8.50189 13.1196,-9.89972 3.934,-0.85937 7.283,1.97541 11,1.21607 4.7628,-0.97302 7.7598,-5.38568 13,-5.84259 4.862,-0.42395 7.5348,3.71277 11.9853,4.1358 3.6203,0.34412 5.6247,-3.52356 9.0541,-3.99304 3.629,-0.49683 7.2775,1.5686 10.9598,1.41437 8.9909,-0.37659 7.8797,-9.58515 9.0008,-15.90204 l 38,-4 c -1.8359,12.59082 6.6717,10.00165 11.9576,18.41821 4.2723,6.80261 0.3514,13.62189 11.0424,17.46063 7.4181,2.66358 14.8651,-10.71301 21.0394,-13.1358 7.2236,-2.83453 8.2877,4.54358 14.0038,5.15894 8.55798,0.92126 17.78057,-5.57996 24.95681,-8.90198 1.95734,12.28119 11.52499,5.90747 20,6.05402 3.75302,0.0649 11.15884,2.24481 12.53857,-3.16279 0.95563,-3.74542 -4.03585,-6.90795 -5.51156,-9.89123 -2.1677,-4.38214 -1.16867,-11.16077 -1.74152,-16 -1.4014,-11.83862 1.62302,-28.12836 -2.76773,-39 -3.55823,-8.8103 -13.50525,-13.43933 -16.77548,-22 -2.37189,-6.20899 0.33725,-13.58496 -1.13657,-20 -1.08682,-4.73059 -4.92444,-8.14465 -7.60571,-12 9.99548,-2.87183 15.81241,5.61084 25,6.58032 9.50858,1.0033 17.31397,-5.66089 27,-1.58032 -5.73856,12.36426 -5.97678,16.53735 1.1142,28 1.5563,2.51581 1.98034,7.34857 5.11419,8.47687 4.65461,1.67584 8.09354,-5.23767 12.81098,-5.32874 6.74701,-0.13019 10.93387,3.57086 16.96063,5.33875 4.72427,1.3858 10.12799,0.24182 15,0.94134 13.52432,1.9419 26.42361,11.39655 39.99615,3.34418 3.39716,-2.0155 17.15342,-10.89966 17.25232,-14.79633 0.12351,-4.86682 -6.03726,-4.19323 -8.03009,-7.40893 -2.91403,-4.70227 3.47605,-19.57739 7.17514,-22.91822 3.5615,-3.21643 8.806,-3.99755 12.59183,-7.0393 3.19055,-2.56348 5.38043,-7.41394 9.1991,-9.00623 3.96972,-1.65527 8.66199,0.37293 12.81555,-0.57019 5.52618,-1.25476 9.68964,-5.34118 15,-7.04089 5.29987,-1.69641 10.82361,-1.22266 16,-3.63733 6.79236,-3.16846 16.58313,-8.7887 21.44287,-14.53943 2.86267,-3.38745 3.33936,-8.25342 6.25617,-11.49768 2.44287,-2.71716 7.21875,-1.46362 9.07794,-4.63574 2.38067,-4.06189 -2.79206,-10.1405 -2.56635,-14.68213 0.30078,-6.05103 2.71021,-11.89771 2.71063,-18 10e-4,-19.87622 -7.747,-47.66992 16.07874,-56.23535 12.29736,-4.42102 25.34918,-4.78748 38,-7.58325 3.81866,-0.84388 9.95258,-5.30652 13.58105,-2.53479 8.89612,6.79565 1.51258,17.74328 3.15735,25.16821 1.07532,4.85425 15.98059,11.87842 20.2616,14.21606 10.27228,5.60913 13.37378,-9.85168 20.89276,-5.98388 9.54309,4.90905 4.84949,32.6726 16.12268,32.58117 2.70178,-0.022 5.4845,-1.74084 7.98456,-2.62817 m 16,7 -1,1 1,-1 m 7,12 -1,1 1,-1 m 288.99995,238 -1,1 1,-1 m -899.99996,3 -2,2 2,-2 m 894.99996,2 -1,1 1,-1 m -4,7 -1,1 1,-1 m -886.99996,3 -1,1 1,-1 m -7,1 -1,1 1,-1 m -11,2 -1,1 1,-1 m 6,5 -1,1 1,-1 m 10,5 -1,1 1,-1 m 243.00001,185.99996 -1,1 z"
       id="path2" />
    <path
       style="fill:#000000"
       d="m 679.96989,1125.6387 c -0.25844,-0.2572 -3.79737,-0.9283 -7.8643,-1.4912 -6.45113,-0.893 -7.85973,-1.478 -11.04216,-4.5856 -4.54648,-4.4395 -6.43747,-4.4471 -15.33887,-0.062 -9.80993,4.8328 -11.00611,4.6663 -17.65992,-2.4586 -7.74526,-8.2936 -17.71817,-10.2746 -27.26498,-5.4157 -8.09477,4.1198 -13.3387,0.2321 -12.33454,-9.1446 1.1048,-10.3164 -1.70992,-13.7629 -13.46512,-16.4875 -5.53386,-1.2826 -9.0388,-2.8271 -21,-9.2541 -12.43482,-6.6816 -17,-5.1563 -17,5.6799 0,6.3864 -1.01471,7.3213 -8.96872,8.2633 -3.88361,0.46 -5.78623,0.1257 -9.09148,-1.5971 -2.29901,-1.1983 -4.29002,-2.0453 -4.42446,-1.8822 -0.13444,0.1632 -0.77122,1.3091 -1.41507,2.5466 -2.21528,4.2578 -11.43845,1.7355 -13.22229,-3.6161 -0.31223,-0.9366 -1.2869,-0.861 -4.11149,0.3192 -9.50049,3.9696 -16.95907,1.8039 -23.80975,-6.9135 -6.56433,-8.3529 -7.79283,-8.6287 -17.96864,-4.0342 -12.13806,5.4805 -15.22804,4.4222 -21.4881,-7.3594 l -3,-5.646 -8.57905,-0.6543 c -8.87311,-0.6767 -28.47721,-6.0145 -29.11481,-7.9273 -0.23937,-0.7181 -1.23941,-0.7042 -3.20902,0.045 -9.00969,3.4255 -14.43654,-6.1088 -9.57516,-16.8223 2.53037,-5.5764 2.54521,-5.4882 -1.15893,-6.8864 -2.71168,-1.0235 -3.47563,-0.9177 -5.63486,0.7808 -3.60843,2.8384 -9.76328,0.2577 -7.62745,-3.1982 0.28452,-0.4603 -1.24788,-0.837 -3.40534,-0.837 -14.13729,0 -11.59256,-14.964 3.54775,-20.8621 5.86735,-2.2857 6.08401,-2.4995 6.70103,-6.61408 0.3931,-2.62142 1.58067,-5.13797 3.09673,-6.56224 1.99469,-1.87391 2.45911,-3.28271 2.45911,-7.45967 0,-2.8322 1.10469,-8.8402 2.45486,-13.35111 3.69968,-12.36056 10.24074,-53.71131 11.45298,-72.40257 0.5973,-9.20968 1.29232,-13.40476 2.53503,-15.30139 1.61831,-2.46985 1.617,-2.68258 -0.024,-3.88254 -1.93425,-1.41436 -1.50921,-28.02402 0.63197,-39.5643 0.56125,-3.025 1.37503,-12.25 1.80839,-20.5 1.37667,-26.20838 12.49692,-42.45267 17.60182,-25.71249 0.38367,1.25813 2.34939,3.33241 4.36828,4.60951 2.01889,1.2771 5.58321,4.40016 7.92071,6.94015 5.29232,5.75075 5.5566,4.49345 0.41985,-1.99737 -7.94502,-10.03936 -23.15352,-21.33487 -28.73129,-21.33901 -6.88676,-0.005 -7.50509,-14.99394 -0.78217,-18.96056 8.83848,-5.21483 9.62343,-21.14711 1.59894,-32.45398 -3.59746,-5.06899 -4.20621,-7.45973 -2.88652,-11.33625 0.52759,-1.54979 0.37302,-2.25 -0.4967,-2.25 -0.69447,0 -2.51401,-1.19886 -4.04342,-2.66412 -2.02399,-1.93911 -4.35207,-2.87654 -8.55472,-3.44466 -4.67072,-0.6314 -6.30881,-1.37785 -8.5731,-3.90664 -1.66078,-1.85478 -5.07887,-3.91046 -8.40484,-5.05476 -9.19351,-3.16303 -16.27167,-10.38625 -16.3058,-16.63998 -0.0317,-5.8015 -7.14415,-15.325 -19.30273,-25.84602 -7.02578,-6.07953 -6.79405,-10.38379 0.99889,-18.55389 6.61604,-6.93621 6.45819,-7.47608 -3.68639,-12.60774 l -5.5,-2.78219 0.0252,-5.75 0.0252,-5.75 h -3.08406 c -1.69623,0 -3.95756,-0.66069 -5.02518,-1.4682 -1.06762,-0.8075 -3.62863,-1.4825 -5.69113,-1.5 -4.0134,-0.034 -5.25679,-1.01663 -9.36023,-7.397 -3.81402,-5.93034 -4.09085,-9.02463 -1.07703,-12.03845 3.42325,-3.42325 1.87249,-8.95981 -2.29289,-8.18612 C 281.29625,586.95931 272.5,585.43197 272.5,580.5 c 0,-2.42887 0.66632,-3.33286 3.5,-4.74845 3.26815,-1.63262 3.33029,-1.74854 0.93806,-1.75 -1.68817,-10e-4 -3.31841,1.02163 -4.77994,2.99845 -2.67789,3.62203 -5.57511,3.84181 -11.44796,0.86841 -6.66027,-3.37207 -17.63366,-10.68282 -20.21404,-13.4671 -1.94189,-2.09533 -2.71279,-2.35572 -4.36171,-1.47324 -3.92101,2.09846 -7.06727,1.30004 -9.21387,-2.33817 l -2.01201,-3.41011 -9.70427,-0.66444 c -12.11285,-0.82937 -16.0594,-1.99816 -17.27108,-5.11496 -0.51325,-1.32021 -1.37655,-3.53202 -1.91845,-4.91512 l -0.98527,-2.51473 -2.01473,2.01473 C 191.68779,547.31221 189.67612,548 187.12197,548 c -2.91234,0 -4.25004,0.56028 -5.37197,2.25 -5.05653,7.61554 -21.4232,1.68225 -21.01935,-7.62 0.20615,-4.74867 -0.0327,-5.45372 -2.25,-6.64036 C 157.11629,535.25946 156,534.29447 156,533.84521 c 0,-1.815 -7.63314,-5.69953 -11.14725,-5.67287 -13.79901,0.10466 -10.90426,-11.83904 3.07369,-12.68199 17.29447,-1.04296 20.40859,-2.63847 13.27802,-6.80294 -3.0371,-1.77377 -3.42581,-1.79706 -5.07547,-0.30415 -4.70875,4.26137 -8.66886,0.50405 -7.55841,-7.17134 1.07932,-7.4602 4.62972,-10.07896 11.20368,-8.2638 2.57275,0.71037 3.25338,0.67952 2.46228,-0.11158 -1.95941,-1.95941 -14.67035,-2.28024 -19.16052,-0.48363 -5.1482,2.0599 -8.77664,0.89976 -9.59404,-3.06754 -0.31563,-1.53195 -1.28638,-5.32971 -2.15721,-8.43945 C 128.2578,469.89381 131.78952,464 141.41925,464 c 4.65594,0 5.31862,-0.28623 6.91353,-2.9862 3.78409,-6.40597 15.61371,-10.64419 21.38282,-7.66087 2.86972,1.48399 3.12338,1.44737 5.18649,-0.74871 4.58852,-4.88425 14.62954,-5.96604 20.20576,-2.1769 3.49259,2.37327 3.60835,2.38502 5.19889,0.5274 2.33017,-2.72144 6.22223,-3.40694 11.90101,-2.09612 8.6884,2.00552 8.66211,2.02181 8.99656,-5.57453 0.38115,-8.65702 2.91568,-10.74178 10.00592,-8.2303 4.08574,1.44724 4.51588,1.40815 9.04377,-0.82176 15.5648,-7.66543 30.66839,-5.97823 29.39884,3.28411 -0.67738,4.94204 0.28278,6.12167 7.55985,9.28792 5.18655,2.25667 6.4504,4.7224 5.48135,10.69395 -0.49461,3.0479 -0.20462,3.59322 2.87797,5.41199 1.88539,1.11241 3.42799,2.53994 3.42799,3.17228 0,1.08727 2.28098,-0.63125 12.32394,-9.28498 7.57551,-6.5276 15.4542,-7.05946 20.35762,-1.37426 2.05614,2.38396 2.34361,2.44486 5,1.05934 1.55014,-0.80852 4.76116,-1.47281 7.13559,-1.4762 3.63445,-0.005 4.83916,-0.55964 7.61808,-3.50616 4.81066,-5.10079 11.03981,-3.90212 11.7494,2.26092 0.27587,2.39598 0.69115,2.69771 3.31537,2.40885 1.65,-0.18163 6.70993,-0.40663 11.2443,-0.5 7.50639,-0.15457 8.07699,-0.30403 6.37501,-1.66977 -4.36921,-3.50607 -5.43069,-6.77737 -5.78255,-17.82095 -0.18713,-5.87348 -0.81677,-13.30797 -1.3992,-16.52109 -0.60212,-3.32181 -0.76601,-9.2002 -0.37991,-13.6264 0.9355,-10.72442 -0.30158,-13.8396 -9.20942,-23.19088 -9.10986,-9.56337 -9.61696,-10.81444 -9.7448,-24.04184 L 347.5,348.09767 l -3.75,-3.841 c -10.7882,-11.04999 3.09898,-16.56718 19.81389,-7.87179 l 6.93611,3.60829 5.5,-1.4835 c 19.31465,-5.20969 29.85014,-0.83122 24.09658,10.01435 -4.00566,7.55074 -3.9642,12.50266 0.14311,17.09543 1.90871,2.1343 3.91021,5.22935 4.44779,6.87789 l 0.97741,2.99733 1.31726,-2.49733 c 2.79546,-5.2998 16.80564,-5.46547 23.8645,-0.28221 2.08861,1.53364 4.38599,1.9652 10.79386,2.02761 6.61005,0.0644 10.09467,0.75404 18.53461,3.66827 15.37862,5.3101 22.79156,4.58403 29.60211,-2.89943 2.43865,-2.6796 5.17275,-4.56611 7.30936,-5.04341 l 3.41341,-0.76252 -3.5,-1.1866 c -11.87593,-4.0263 -2.93205,-33.33823 11.56698,-37.90864 4.63041,-1.45961 6.11285,-2.55205 9.09397,-6.70155 4.55702,-6.34305 5.72884,-6.90886 14.30859,-6.90886 6.35958,0 7.88934,-0.41766 14.65077,-4 4.15236,-2.2 8.74898,-4.00495 10.21471,-4.01101 10.72546,-0.0443 30.33236,-12.00132 33.43014,-20.38696 2.53319,-6.85731 5.4535,-10.59576 8.79969,-11.265 2.85265,-0.57053 2.85793,-0.58567 1.27343,-3.64977 -1.28175,-2.47862 -1.42325,-4.35138 -0.72776,-9.63206 0.7951,-6.03694 1.15808,-16.78974 1.68971,-50.0552 0.22089,-13.82133 0.41253,-14.43532 5.11949,-16.40201 1.80563,-0.75444 4.28534,-2.77941 5.51046,-4.49994 3.64037,-5.11243 15.93695,-9.0424 39.56982,-12.64646 6.05,-0.92263 12.66957,-2.52668 14.71016,-3.56455 5.74344,-2.92119 10.20725,-2.51395 12.83086,1.17057 4.52305,6.35203 7.42594,21.33283 5.0089,25.84912 -2.572,4.80581 19.92388,15.39436 23.03705,10.84327 5.11569,-7.47856 13.92631,-7.95725 18.48216,-1.00416 2.22378,3.39393 7.42763,19.93677 7.44618,23.67114 0.026,5.2268 1.28078,6.16332 4.78587,3.57189 3.87183,-2.86256 7.57856,-2.089 9.70631,2.02562 1.29755,2.50918 2.14246,2.98551 5.29568,2.98551 6.5371,0 10.1743,4.7529 10.19125,13.31739 0.005,2.48505 0.27098,2.72552 2.25558,2.03854 18.88361,-6.53658 40.70206,5.44392 32.75,17.98302 -3.62819,5.72106 -3.62836,4.87579 0.002,9.01034 4.34897,4.9532 4.7956,8.54958 1.54198,12.41629 l -2.63339,3.12961 2.53681,1.66218 c 8.47782,5.55488 24.65152,1.61977 27.6994,-6.73935 5.30301,-14.544 15.08403,-20.74121 21.9303,-13.89494 3.8748,3.87479 3.69074,6.32706 -1.05383,14.04063 l -3.97579,6.46371 2.983,1.8887 c 4.24417,2.68722 4.90525,6.8507 2.42846,15.29442 -0.55627,1.8964 -0.11022,2.17803 4.3964,2.77586 3.83838,0.50918 6.48084,1.77405 11.25917,5.38946 3.43403,2.59828 8.28645,5.84914 10.78316,7.22414 3.31355,1.82485 4.78811,3.37251 5.46015,5.73079 0.74191,2.60352 1.57488,3.35353 4.29021,3.86292 4.94004,0.92676 8.35215,3.98211 8.35215,7.47887 0,3.45984 3.05529,4.09882 5.1933,1.08612 4.6456,-6.5462 15.76296,-6.40679 22.8067,0.28598 6.41243,6.09293 8.71394,6.73397 14.19854,3.95471 7.13673,-3.61645 11.35322,-2.82271 26.80146,5.0453 2.475,1.26056 5.72451,2.5815 7.22114,2.93542 3.15686,0.74655 5.19447,3.92258 4.41902,6.88792 -0.3914,1.49673 0.53591,3.10735 3.37585,5.86342 2.15351,2.08991 5.11491,6.1778 6.58088,9.0842 3.36504,6.67144 4.52072,7.40991 6.01916,3.84617 2.45248,-5.83271 19.38397,-3.39742 19.38397,2.78804 0,1.41546 0.6153,1.71345 2.8582,1.38426 1.675,-0.24584 4.5562,0.44678 6.9601,1.6732 5.3708,2.73995 6.2424,2.65554 9.3688,-0.90732 4.6902,-5.34509 14.9793,-3.26789 20.0534,4.04847 L 1051.9812,407 h 9.4745 c 10.6999,0 15.4308,1.27096 24.0494,6.46078 11.034,6.64434 11.8114,8.99623 5.7451,17.38054 -2.0625,2.8506 -7.7424,10.68996 -12.622,17.42079 -13.1384,18.12289 -14.9365,22.43382 -15.5939,37.38632 -0.5783,13.15456 -0.2571,12.34315 -8.0341,20.29104 -1.925,1.96729 -4.3642,5.50422 -5.4204,7.85983 l -1.9204,4.28293 2.299,6.51227 c 2.8023,7.93791 2.4183,12.10105 -2.0186,21.88167 -3.4733,7.65657 -3.6261,14.30091 -0.4408,19.16229 3.557,5.42875 2.4503,8.70243 -5.4346,16.07549 -13.0051,12.16089 -26.0642,16.18852 -26.0642,8.03861 0,-1.70953 -0.4573,-1.91111 -3.125,-1.37756 -1.7187,0.34375 -4.4012,0.625 -5.961,0.625 -2.7384,0 -5.9978,2.51986 -7.99319,6.17946 -0.80626,1.47875 -0.54942,1.57441 2.14929,0.80043 11.8206,-3.39011 10.9321,6.57607 -1.78824,20.05817 -4.04051,4.28248 -9.82723,10.86334 -12.85937,14.62413 -8.59349,10.65858 -9.21069,11.1971 -13.21515,11.53041 -3.59806,0.29948 -3.71098,0.43251 -4.38252,5.16318 -1.2038,8.48014 -9.10978,22.80302 -16.22304,29.39049 -7.9305,7.3443 -15.86125,21.71922 -12.56061,22.7668 C 945.55157,701.262 939.41018,724 933.42742,724 932.64234,724 932,724.675 932,725.5 c 0,3.30204 10.33045,-0.56205 14.01064,-5.24066 1.8445,-2.34489 1.88792,-2.76521 0.5039,-4.8775 -4.08189,-6.22974 0.70118,-14.89401 11.00516,-19.93528 5.79104,-2.83329 6.60966,-2.83398 16.44823,-0.0139 3.00736,0.86203 7.95736,1.57421 11,1.58263 7.09781,0.0196 8.28594,0.81662 7.89976,5.29897 -0.22577,2.6206 0.28926,4.22389 1.91164,5.95082 2.93235,3.12135 2.82756,7.52375 -0.27933,11.7349 -3.1907,4.32475 -3.14374,4.87963 0.52111,6.1572 3.75033,1.30738 5.30869,4.06456 4.46601,7.90145 -0.60129,2.73765 -0.44124,2.94135 2.31098,2.94135 3.6632,0 5.0447,1.61474 7.4324,8.68761 3.1755,9.40612 -0.3433,15.45696 -9.81479,16.8773 -4.80215,0.72013 -4.91632,0.84603 -5.83548,6.43509 -0.55141,3.3529 -0.36761,3.61685 4.37332,6.28027 7.02435,3.94626 9.23615,7.09169 8.89435,12.64914 l -0.2768,4.50114 4.9078,1.75589 c 9.5995,3.43443 11.0452,8.42857 6.616,22.85548 -4.2983,14.00083 -4.8869,14.73993 -13.0949,16.44372 -2.9665,0.61577 -18.35871,4.83372 -21.5,5.89167 -0.55,0.18524 0.6875,1.05316 2.75,1.92871 l 3.75,1.59193 v 7.55102 c 0,4.15307 0.1125,7.58483 0.25,7.62615 0.1375,0.0413 3.80151,0.60381 8.14224,1.25 8.82616,1.31391 8.38406,0.87423 11.57746,11.51342 2.6852,8.94628 2.1832,11.52651 -2.7357,14.06133 -8.54246,4.40207 -11.3127,10.62835 -7.234,16.25883 3.6054,4.97717 3.9866,10.31738 1.0067,14.1057 l -1.99337,2.53412 4.52597,5.03395 c 2.7656,3.07607 5.9718,5.49492 8.2433,6.21913 2.0446,0.65184 6.6424,2.44269 10.2174,3.97965 8.2407,3.54286 14.157,4.4108 21.1961,3.10956 14.4265,-2.66689 20.6823,7.82067 10.86,18.20633 -5.9918,6.33549 -6.8178,8.35628 -7.6899,18.81427 -0.7438,8.91786 -2.4215,11.83859 -6.8003,11.83859 -6.1684,0 -13.9097,4.80694 -17.7795,11.0402 -3.8832,6.25492 -6.4956,7.95982 -12.1965,7.95982 -3.4211,0 -5.8886,1.9695 -6.9831,5.5739 -1.3046,4.296 -6.3492,7.8687 -11.1525,7.8984 -4.02861,0.025 -4.68208,0.3748 -6.58906,3.5277 -1.16431,1.925 -2.61904,3.8188 -3.23272,4.2084 -0.80598,0.5116 -0.77103,1.0531 0.12584,1.95 5.19211,5.1921 -2.08895,12.6051 -14.04271,14.2972 -4.01205,0.5679 -5.142,1.2336 -7,4.1238 -3.14267,4.8886 -8.38104,6.4056 -12.90398,3.737 -2.89811,-1.7099 -3.70436,-1.7968 -6.3169,-0.6808 -2.76669,1.182 -11.75232,1.7172 -23.99477,1.4294 -5.6249,-0.1322 -9.8171,-2.5353 -10.31955,-5.9153 -0.27174,-1.828 -0.98249,-2.1497 -4.75,-2.1497 -3.09712,0 -5.03235,-0.6019 -6.43045,-2 -1.47191,-1.4719 -3.33333,-2 -7.04966,-2 -7.89357,0 -12.94474,-3.8206 -12.95257,-9.7971 -0.002,-1.4662 -1.25822,-1.7252 -9.03979,-1.8635 -10.23102,-0.1818 -11.0952,-0.6259 -14.05024,-7.2215 l -2.06897,-4.6179 -1.66939,2.3108 c -5.72084,7.9189 -5.50276,7.7929 -10.8192,6.2504 -2.6676,-0.774 -7.10018,-1.6007 -9.85018,-1.837 -5.78753,-0.4975 -7.5,-1.5779 -7.5,-4.7316 0,-3.6587 -4.30779,-5.8762 -8.63875,-4.4468 -9.50891,3.1382 -21.35471,0.1007 -22.8506,-5.8594 -1.71248,-6.82308 -10.38836,-6.1447 -14.49589,1.1335 -4.75665,8.4283 -7.19068,10.2234 -13.48772,9.9472 -5.96222,-0.2615 -6.60507,0.2319 -8.37603,6.4293 -2.02135,7.0735 -8.51766,10.7167 -14.02823,7.8671 -15.02932,-7.772 -34.90504,57.3807 -20.87216,68.419 2.59888,2.0443 5.17629,8.5534 4.59386,11.6015 -0.45103,2.3605 -21.18064,4.1122 -26.13954,2.2088 -4.37074,-1.6775 -7.70494,0.2831 -7.70494,4.5308 0,4.3225 -6.63594,9.6981 -9.03011,7.3151 z M 684.8,1121.8 c 0.66,-0.66 1.2,-2.6916 1.2,-4.5147 0,-4.0868 4.90383,-7.7546 9,-6.7316 3.57338,0.8925 25.10414,1.0862 25.63312,0.2306 0.72715,-1.176 -3.49401,-8.6395 -5.49066,-9.7081 -6.5316,-3.4956 -3.12891,-49.0536 4.26266,-57.0718 1.26974,-1.3774 4.10967,-4.9869 6.31095,-8.0211 5.16146,-7.1144 10.33126,-10.1554 13.0625,-7.6837 4.21317,3.8129 12.22143,-0.8723 12.22143,-7.1501 0,-4.7002 4.17028,-7.4513 10.06589,-6.6404 5.17269,0.7114 7.79093,-1.3878 11.98517,-9.6092 4.2782,-8.38595 15.51561,-8.1706 19.4852,0.3734 l 1.96374,4.2267 8.36107,0.2922 c 6.34571,0.2218 8.9475,-0.092 10.79399,-1.3018 2.94943,-1.9326 8.46156,1.8033 9.34512,6.3337 0.44847,2.2994 1.22401,2.6967 7.5,3.842 3.8499,0.7025 8.34982,1.5468 9.99982,1.8763 2.70116,0.5393 3.19923,0.2184 5,-3.2217 3.10784,-5.9371 6.91456,-5.8984 9.56667,0.097 2.81134,6.3555 13.18125,9.1958 20.08472,5.5012 2.49949,-1.3377 3.00071,-0.8659 3.4833,3.279 0.6354,5.4572 1.28938,6.5381 5.02957,8.3129 2.50728,1.1898 4.79191,1.5119 7.57156,1.0674 3.44433,-0.5508 4.30649,-0.2852 6.39727,1.9708 1.9273,2.0796 3.0981,2.5155 5.78398,2.1536 3.97247,-0.5354 4.72371,-0.1127 6.34099,3.5674 2.06507,4.699 19.42717,6.2137 30.99097,2.7036 3.748,-1.1376 4.64406,-1.0769 7.59928,0.5145 4.31375,2.3232 7.56397,1.4451 10.16255,-2.7454 1.67415,-2.6998 3.01375,-3.466 8,-4.5756 12.80101,-2.8488 16.6852,-6.2007 12.43178,-10.7283 l -2.33611,-2.4866 2.97634,-2.7262 c 1.63698,-1.4993 3.58767,-4.2069 4.33485,-6.0167 1.30292,-3.1558 1.5297,-3.2649 5.54075,-2.6634 4.4864,0.6728 10.54153,-2.8953 10.54153,-6.2118 0,-2.992 5.6179,-7.3342 9.4888,-7.3342 5.1562,0 6.9605,-1.2667 10.6931,-7.50719 3.542,-5.92186 7.3748,-8.38546 16.4787,-10.59185 6.5274,-1.58199 6.485,-1.51462 7.4355,-11.81467 0.9503,-10.29871 2.0824,-12.98217 7.8215,-18.53924 9.0555,-8.76831 4.417,-14.59249 -11.0219,-13.83938 -7.9153,0.38612 -11.3501,0.14106 -14.3957,-1.02708 -2.2,-0.84381 -7.586,-2.85871 -11.969,-4.47756 -13.1241,-4.84743 -20.22619,-13.96119 -15.531,-19.93016 2.678,-3.40451 2.5248,-5.24731 -0.82095,-9.87283 -5.56118,-7.68848 -2.69329,-15.46292 7.68355,-20.82899 3.6005,-1.86187 4.0248,-4.51153 1.6374,-10.22529 -0.825,-1.97451 -1.5,-4.60495 -1.5,-5.84544 0,-3.28234 -1.6884,-4.15431 -9.36516,-4.8365 -9.13699,-0.81196 -10.00933,-1.6371 -9.20905,-8.71065 C 988.15596,846.49933 987.50475,844 985.09301,844 982.75019,844 981,842.02342 981,839.37755 c 0,-2.49553 0.33994,-2.63349 17,-6.89923 13.9387,-3.56896 13.2618,-2.99369 16.8523,-14.3201 C 1019.2526,804.2774 1018.0981,797 1011.4958,797 c -4.9033,0 -7.5361,-2.8992 -7.3522,-8.09599 0.2064,-5.8314 -1.1624,-7.66525 -8.82039,-11.8168 -4.77619,-2.58928 -4.81973,-2.65818 -4.466,-7.06786 0.61276,-7.63896 1.4267,-8.7289 7.45285,-9.97992 6.70154,-1.39122 10.18314,-4.62808 9.39394,-8.73344 -2.0259,-10.53862 -3.127,-12.26333 -7.84701,-12.29068 -3.06213,-0.0177 -4.04279,-1.83633 -3.21692,-5.96566 0.52667,-2.63335 0.2216,-3.08061 -3.02719,-4.43804 C 989.13362,726.74006 988.75006,723.08276 992.5,718 c 3.07995,-4.17464 3.08012,-4.15711 -0.0769,-7.90898 -1.87047,-2.22294 -2.48726,-3.95726 -2.25,-6.32673 L 990.5,700.5 984,699.71639 c -3.575,-0.43099 -8.525,-1.25321 -11,-1.82716 -10.96955,-2.5438 -12.93696,-2.17893 -19.91604,3.69357 -5.22976,4.40056 -6.42581,7.63248 -4.39814,11.88454 3.70098,7.76105 -13.85941,21.75907 -19.81958,15.7989 -1.20439,-1.20439 0.97228,-7.26624 2.60914,-7.26624 5.01619,0 10.99472,-19.08124 6.43224,-20.52932 -4.69565,-1.49034 2.99479,-17.89521 12.46784,-26.5958 7.26672,-6.67415 12.821,-16.345 15.52803,-27.03662 1.79721,-7.09818 1.96822,-7.35462 5.22725,-7.83826 4.50999,-0.66929 5.64115,-1.53468 10.68567,-8.17506 2.37115,-3.12129 8.80075,-10.54075 14.28799,-16.4877 12.1516,-13.16964 14.0929,-18.70345 5.8956,-16.80586 -7.45686,1.72618 -8.51262,0.20176 -4.32888,-6.25053 4.73228,-7.29832 21.32888,-9.80531 21.32888,-3.22183 0,4.73076 11.0485,0.0144 20.2945,-8.66332 8.7188,-8.18293 8.3796,-7.40117 5.8062,-13.38322 -3.1534,-7.33042 -2.8461,-15.25728 0.8985,-23.17269 1.6496,-3.48689 2.988,-7.46479 2.9742,-8.83979 -0.016,-1.57816 -0.8953,-0.10323 -2.3853,4 -1.2981,3.575 -3.1214,8.52031 -4.0518,10.98957 -2.0128,5.34216 -1.4244,11.39206 1.7291,17.77893 l 2.1076,4.26851 -7.6769,7.43183 c -9.5652,9.25998 -17.0879,12.11117 -19.2107,7.28116 -2.3137,-5.2641 -17.6792,-2.22602 -22.51678,4.45202 -5.46799,7.54834 -3.71744,11.34939 3.98958,8.66272 7.7542,-2.70314 6.0407,2.019 -4.97695,13.7158 -4.27466,4.53815 -10.59197,11.88905 -14.03846,16.33532 -5.48198,7.07224 -6.66026,8.08414 -9.41343,8.08414 -4.61833,0 -6.27621,1.82918 -7.41664,8.18292 -1.8281,10.18507 -10.5709,25.14302 -17.42934,29.81967 -7.64944,5.21601 -15.53181,24.95858 -10.591,26.52673 3.34214,1.06076 -1.11695,16.72083 -5.05432,17.75048 -1.84948,0.48365 -4.0943,3.9863 -5.52812,8.62571 l -0.74343,2.4055 6.6445,-0.62047 c 12.053,-1.12553 21.40031,-9.3533 18.11275,-15.94337 -4.719,-9.45946 7.77813,-20.11808 19.17815,-16.35677 2.63895,0.87069 7.94809,1.92823 11.79809,2.3501 l 7,0.76704 v 3.17646 c 0,2.00264 0.83146,3.95572 2.25,5.28519 2.73051,2.55906 2.82641,4.38931 0.41273,7.87644 -3.99763,5.7755 -3.48869,8.90021 1.90383,11.68879 2.67615,1.38389 2.93908,1.91862 2.38793,4.85649 -0.75273,4.01238 1.38242,6.60909 5.43431,6.60909 2.4415,0 2.9325,0.59182 4.4286,5.33789 2.6727,8.479 1.2162,10.78675 -8.01824,12.70381 -6.03484,1.25282 -6.57725,1.99707 -7.76046,10.6481 l -0.70982,5.1898 4.83556,2.48043 c 8.34896,4.28265 8.77576,4.82147 9.33166,11.77985 l 0.5039,6.30674 5,1.81285 c 9.4041,3.40966 9.9343,5.68495 4.9871,21.40204 -3.1561,10.02701 -2.3429,9.40974 -17.4871,13.27376 -13.87526,3.54026 -17.53638,5.29448 -16.46497,7.88917 0.38053,0.92156 0.91831,2.46306 1.19505,3.42556 0.29801,1.03642 1.47503,1.75 2.88655,1.75 2.54878,0 2.68919,0.4518 2.4019,7.72851 -0.30279,7.66936 2.30139,10.24957 10.38069,10.28514 6.42588,0.0283 7.15408,0.68462 9.67398,8.71991 2.2969,7.32376 2.3144,7.61669 0.518,8.6731 -12.10945,7.12138 -15.48024,14.62274 -10.0912,22.45702 4.176,6.07086 4.1328,5.61574 0.9678,10.18278 -3.65342,5.27189 3.9663,17.59753 12.0567,19.50306 1.6365,0.38545 5.9617,1.98823 9.6114,3.56174 10.2725,4.42876 16.0204,5.35983 24.1354,3.9096 11.0914,-1.98216 15.4878,3.9759 8.1411,11.03297 -5.2368,5.03027 -7.3665,9.94463 -8.734,20.15363 l -1.2164,9.08087 -4.481,1.2071 c -9.0634,2.44153 -13.7619,5.1938 -16.5566,9.69848 -4.5206,7.28658 -6.3608,8.80609 -10.6645,8.80609 -5.435,0 -7.3879,1.3324 -10.2599,7 -3.00706,5.9341 -5.1413,7.2409 -10.4418,6.3933 -3.77556,-0.6037 -4.11238,-0.4487 -5.78361,2.6617 -0.97603,1.8166 -3.30111,4.8763 -5.16685,6.7995 l -3.39226,3.4967 2.14226,1.7347 c 4.41529,3.5753 1.48658,7.3418 -6.92726,8.9088 -8.01648,1.4931 -10.63497,2.8393 -12.86076,6.6117 -2.30849,3.9126 -3.68432,4.14 -8.71958,1.4413 -3.35804,-1.7998 -3.92241,-1.8354 -7.22427,-0.4558 -1.96991,0.8231 -6.06661,1.4207 -9.10377,1.3281 -3.03715,-0.093 -7.13795,0.1492 -9.11287,0.5373 -5.80479,1.1406 -11.63146,-0.9161 -12.3909,-4.3738 -0.67113,-3.0557 -2.65493,-4.0459 -8.15332,-4.0698 -2.20906,-0.01 -3.60635,-0.7331 -4.7309,-2.4494 -1.41113,-2.1536 -1.97359,-2.3273 -4.85768,-1.5002 -7.80192,2.2376 -12.2808,-0.8046 -13.00904,-8.8361 -0.59483,-6.5602 -1.00681,-6.9714 -4.34959,-4.342 -1.9181,1.5088 -4.0088,2.0855 -7.30266,2.0143 -7.60187,-0.1642 -9.42022,-1.075 -11.69325,-5.857 -3.50416,-7.3721 -8.33096,-6.8332 -13.00334,1.4518 -1.04607,1.8549 -1.25428,1.8618 -6.36483,0.2112 -2.90587,-0.9384 -6.77096,-1.7063 -8.5891,-1.7063 -2.85992,0 -3.39457,-0.4046 -3.96462,-3 -0.3624,-1.65 -1.01976,-3 -1.4608,-3 -0.44104,0 -2.13169,-1.3602 -3.757,-3.0226 l -2.95511,-3.0225 -2.57128,2.0225 C 808.18853,1011.3567 793,1009.1779 793,1004 c 0,-9.07811 -15.66186,-7.76763 -21.67494,1.8136 -4.78702,7.6276 -5.61722,8.176 -11.3502,7.497 -5.32396,-0.6305 -9.97486,2.4453 -9.97486,6.5969 0,6.2393 -5.97834,10.6472 -10.45892,7.7114 -4.34895,-2.8496 -8.45656,-0.5532 -15.54886,8.6926 -2.18902,2.8537 -4.9184,6.356 -6.06529,7.783 -8.16774,10.1625 -10.20135,51.7664 -2.85051,58.316 5.60443,4.9936 4.18246,7.5544 -4.32642,7.7915 -8.77976,0.2446 -11.27111,0.123 -15.52398,-0.7579 -5.30176,-1.0982 -10.98573,3.1741 -10.44017,7.8473 0.76072,6.5161 -15.72953,5.2969 -22.48943,-1.6627 -4.631,-4.7679 -8.18887,-4.7729 -17.36462,-0.024 -8.20997,4.2486 -10.75522,4.0355 -13.97237,-1.1699 -5.21876,-8.4442 -18.14973,-11.2904 -30.83133,-6.7863 -7.12561,2.5308 -8.51379,1.5944 -7.6683,-5.1726 1.40692,-11.2606 -2.68629,-16.3795 -16.11466,-20.1528 -5.31138,-1.4924 -12.33963,-4.4994 -17.592,-7.5265 -16.03082,-9.2392 -27.71994,-6.0937 -25.29956,6.808 1.01307,5.4002 -7.71854,7.5251 -13.95358,3.3958 -3.97517,-2.6327 -5.95056,-2.514 -8.32134,0.5 -2.66563,3.3888 -4.12787,3.1554 -7.83062,-1.25 -3.11248,-3.703 -3.19389,-3.7322 -6.5,-2.3321 -1.84142,0.7799 -6.08914,1.6026 -9.43937,1.8283 -6.74493,0.4544 -5.13345,1.4984 -15.39059,-9.9703 -5.84283,-6.533 -8.5422,-6.8843 -18.01441,-2.3449 -10.95944,5.2522 -14.05886,4.47 -17.62724,-4.4482 -2.70995,-6.7729 -5.82729,-8.5802 -16.01897,-9.2875 -5.51951,-0.3831 -12.0607,-1.6662 -17.35746,-3.405 l -8.5,-2.7903 -0.31422,-4.3876 -0.31422,-4.3876 -2.42336,3.5662 c -6.6384,9.7693 -13.93237,2.4589 -8.38871,-8.4076 3.55666,-6.9716 -3.88311,-15.9714 -10.03026,-12.1334 -2.86301,1.7875 -4.71861,1.5458 -5.30349,-0.6908 -0.39652,-1.5163 -1.54779,-2.0083 -5.26419,-2.25 -10.43112,-0.6781 -8.86284,-6.8697 3.2757,-12.9325 8.59465,-4.2927 8.77329,-4.4557 9.31238,-8.4942 0.31856,-2.38652 1.68486,-5.46668 3.25,-7.32674 2.19525,-2.60891 2.70037,-4.207 2.70037,-8.54339 0,-2.9338 0.89622,-8.18677 1.9916,-11.67328 2.0582,-6.55105 5.37122,-23.20359 6.53335,-32.83909 0.36484,-3.025 1.52183,-10.61223 2.5711,-16.86051 1.04927,-6.24827 2.18503,-16.59827 2.52392,-23 C 395.38722,886.64579 396.22371,885 402.82305,885 c 7.11712,0 9.21579,-3.00008 4.92695,-7.04316 -1.88707,-1.77894 -3.01618,-2.02162 -7,-1.50451 l -4.75,0.61656 v -10.48323 c 0,-5.76578 0.71374,-15.79377 1.58608,-22.28444 0.87235,-6.49067 1.92057,-17.87622 2.32939,-25.30122 1.0671,-19.38066 6.21715,-30.17699 10.33229,-21.66015 1.0959,2.2681 3.20041,4.3583 5.64256,5.60419 6.54763,3.34036 10.27522,8.71654 13.51061,19.48591 6.47073,21.53861 11.15945,22.99555 7.61216,2.36536 -3.84512,-22.3623 -14.97913,-36.29779 -35.51309,-44.44872 -6.87286,-2.72818 -8.03493,-9.91839 -2.16293,-13.38296 5.06779,-2.99007 8.04081,-10.35932 8.05405,-19.96363 0.011,-7.99176 -0.95254,-10.69467 -6.66999,-18.71031 -3.00255,-4.20945 -3.00278,-4.21085 -1.11215,-6.87529 6.34493,-8.94182 6.31217,-9.93623 -0.26902,-8.16736 -3.96711,1.06626 -4.32814,0.97052 -7.78479,-2.06446 C 388.64533,708.62771 387.0545,708 383.48945,708 c -3.80356,0 -4.89888,-0.50324 -7.63157,-3.50625 -1.92811,-2.11886 -4.80648,-3.93615 -7.27425,-4.59269 -9.48298,-2.52291 -14.80077,-7.69251 -16.07316,-15.62528 -1.15206,-7.18252 -10.77431,-19.77689 -20.10177,-26.31082 -5.78485,-4.0523 -5.02921,-7.92527 2.93178,-15.02668 6.97807,-6.22461 5.26385,-11.7398 -5.00306,-16.09643 l -5.51886,-2.34185 0.56597,-7.10808 c 0.66021,-8.29171 0.36877,-8.83283 -3.64055,-6.75953 -2.80859,1.45238 -3.1852,1.41752 -5.83272,-0.53988 C 314.17222,608.80679 311.57034,608 309.16294,608 c -4.25087,0 -4.67914,-0.35559 -8.25207,-6.85172 l -2.39349,-4.35172 2.92353,-2.33114 c 4.72274,-3.76578 0.27386,-16.21512 -5.18193,-14.50063 -1.51744,0.47686 -4.92331,1.12493 -7.56861,1.44015 l -4.80963,0.57315 0.67368,-4.49242 c 1.13038,-7.53794 -9.86723,-10.17241 -15.19831,-3.64075 l -2.1439,2.6267 -3.8561,-1.81505 C 256.41799,571.39084 245.57079,564.21945 242.05383,560.57302 238.27,556.64991 236.87555,556.2401 235,558.5 c -1.84083,2.21807 -3.92611,1.82455 -4.97688,-0.9392 -1.3728,-3.61072 -3.39756,-4.26089 -15.73956,-5.05412 -12.00053,-0.77128 -12.3575,-0.94093 -14.23332,-6.76436 -1.83454,-5.69526 -5.58709,-7.2292 -8.92371,-3.64776 -1.52785,1.63995 -2.88787,2.01977 -6.26623,1.75 -3.87462,-0.3094 -4.45028,-0.064 -5.64215,2.40544 -3.47194,7.19351 -15.50233,2.94506 -14.54518,-5.13653 0.31547,-2.66368 0.18061,-5.08564 -0.29969,-5.38213 -1.39699,-0.86236 -1.01297,10.78497 0.41235,12.50657 3.01783,3.64515 14.46535,2.90831 15.02635,-0.9672 0.27397,-1.89262 0.93708,-2.15039 5.44214,-2.11549 3.58017,0.0277 5.48308,-0.44291 6.29826,-1.55774 2.52143,-3.44826 6.57771,-1.58787 7.81123,3.58259 1.15312,4.83341 2.83891,5.57561 14.35977,6.32218 10.85611,0.70349 15.27662,2.14615 15.27662,4.98562 0,2.41521 3.44455,3.64599 5.61186,2.00519 2.89753,-2.19363 4.31214,-1.80904 8.30168,2.25694 9.44644,9.62746 24.63282,16.11748 27.4945,11.75 2.95843,-4.51513 13.59196,-3.18515 13.59196,1.7 0,1.42386 -0.81028,1.8 -3.87756,1.8 -2.14273,0 -4.40862,0.6399 -5.06456,1.43026 -2.88056,3.47087 7.28484,4.45226 20.94212,2.0218 3.47582,-0.61856 3.51283,-0.58646 5.35668,4.64711 l 1.85668,5.26998 -2.60668,1.89883 c -3.24501,2.36383 -3.28481,4.58771 -0.16887,9.43761 4.2932,6.6823 5.41958,7.54375 8.98835,6.87424 2.51991,-0.47274 3.66133,-0.14064 5.14273,1.49629 1.54537,1.70762 2.62671,1.98831 5.74114,1.49029 l 3.83716,-0.61358 -0.15885,5.27358 c -0.0874,2.90048 -0.12048,5.85208 -0.0736,6.55913 0.0469,0.70704 2.22275,2.19985 4.83525,3.31735 10.90574,4.66492 11.76919,8.57518 3.75,16.98246 -7.54648,7.9117 -7.33592,9.71204 1.97614,16.89625 7.49851,5.78505 15.10785,16.0868 16.61114,22.48864 2.33808,9.95681 4.48799,12.35438 14.86493,16.57731 4.28211,1.74262 8.15397,4.11362 9.68091,5.92828 2.0464,2.43202 3.32336,3.02417 6.52152,3.02417 4.33366,0 6.83506,1.04078 11.1719,4.64841 1.99218,1.65721 3.54191,2.17173 5.25,1.74302 3.00705,-0.75472 3.16395,0.85173 0.42346,4.3357 -2.72627,3.46589 -2.60926,4.05297 2.25,11.28951 8.11832,12.09001 5.59585,32.86808 -4.39449,36.19819 -1.13258,0.37753 -2.64063,7.3502 -2.11634,9.78517 0.17764,0.825 4.47149,3.46817 9.5419,5.87371 10.75429,5.10213 24.24237,17.43979 27.60069,25.24657 2.02127,4.69865 5.69468,23.63661 4.76513,24.56617 -1.60146,1.60145 -3.52795,-1.29602 -5.5438,-8.33794 -3.92378,-13.70685 -6.05896,-16.98758 -14.82709,-22.78205 -2.88949,-1.90954 -5.0053,-4.19831 -5.60801,-6.06646 -1.49435,-4.63182 -6.64821,-4.70519 -6.67415,-0.095 -0.003,0.60225 -0.71188,2.44501 -1.57443,4.09501 -2.9044,5.55593 -4.41915,13.8578 -4.46296,24.4601 -0.024,5.79694 -0.44813,12.5649 -0.94262,15.0399 -4.5776,22.91177 -3.27766,40.68667 2.85479,39.03538 5.11074,-1.37618 8.41108,-0.0122 7.94206,3.28228 -0.2476,1.73924 -1.02132,2.20709 -3.81068,2.30424 -1.925,0.067 -4.27594,0.17954 -5.22432,0.25 -3.25998,0.24219 -4.87181,5.68724 -5.76019,19.45897 -1.26099,19.54802 -7.60783,59.54406 -11.09023,69.88758 -1.05889,3.14515 -1.92526,8.417 -1.92526,11.71521 0,5.23709 -0.38003,6.42958 -3,9.41356 -1.88957,2.1521 -3,4.51355 -3,6.37977 0,3.6459 -1.65453,5.1148 -10.1671,9.0266 -12.3653,5.6822 -12.5798,14.548 -0.35583,14.7076 2.16977,0.028 3.0774,0.5811 3.34706,2.0388 0.62938,3.4021 1.86645,3.7886 4.91399,1.5355 l 2.93367,-2.169 4.66411,2.266 c 5.42654,2.6365 5.48938,2.967 2.09666,11.0277 -3.72189,8.8428 0.28062,15.9981 6.7048,11.9861 2.54386,-1.5887 4.60331,-1.4321 5.6449,0.4291 1.20699,2.1568 16.67912,6.4408 28.21774,7.813 l 9.5,1.1299 3.17566,5.9714 c 5.53341,10.405 8.53496,11.452 18.46304,6.4403 10.24065,-5.1695 13.73771,-4.3999 20.79105,4.5753 6.80735,8.6622 10.52779,9.8886 19.85249,6.5444 6.50009,-2.3311 9.04097,-1.8116 9.24918,1.8914 0.19399,3.45 7.43397,4.3187 8.48167,1.0177 0.92126,-2.9027 3.91223,-3.2304 7.91695,-0.8676 7.60405,4.4865 16.08022,1.6207 15.05829,-5.0912 -1.86283,-12.2349 8.883,-13.9338 26.0118,-4.1123 4.88333,2.8 11.50359,5.633 15.38864,6.585 12.58278,3.0836 17.68459,9.2872 15.31504,18.6225 -1.85687,7.3155 1.2564,9.3518 9.98681,6.5322 12.34216,-3.986 21.70879,-1.9332 28.62973,6.2746 5.23262,6.2056 6.88919,6.3722 15.88568,1.598 8.57761,-4.5519 11.03436,-4.4849 16.74396,0.4567 2.51439,2.1762 6.02926,4.1923 7.81082,4.4803 11.04004,1.7846 13.06702,1.8352 14.53919,0.363 z m -2.8,-6.145 c 0,-3.3607 1.51118,-5.3713 5.63874,-7.5021 2.33561,-1.2058 3.09333,-1.2433 18.01569,-0.892 10.48063,0.2468 11.07157,-0.069 6.66671,-3.5645 -3.73424,-2.9632 -4.63924,-8.6342 -3.95999,-24.8144 0.89136,-21.2331 3.74679,-32.63 10.03317,-40.0455 1.70812,-2.0149 4.77069,-5.6655 6.8057,-8.1123 5.5095,-6.6246 9.90035,-8.4336 14.94656,-6.1581 4.70242,2.1205 5.48034,1.5629 7.14113,-5.1188 1.6776,-6.7493 6.17919,-9.8815 12.93625,-9.0009 l 4.72396,0.6156 3.01983,-5.3509 c 7.35689,-13.03565 24.0023,-14.77152 27.41867,-2.8593 0.49979,1.7426 1.61962,3.2036 2.50824,3.2723 5.08302,0.3929 12.84742,-0.5305 14.56249,-1.7317 3.74242,-2.6213 14.54285,3.5605 14.54285,8.3238 0,0.6851 1.2375,1.4864 2.75,1.7807 1.5125,0.2942 4.76632,1.0038 7.23071,1.5769 3.20599,0.7455 4.58453,0.7305 4.84565,-0.053 3.20605,-9.6181 15.24212,-8.5649 17.78234,1.5562 0.83423,3.3238 11.60651,3.6147 15.66417,0.4229 4.17404,-3.2833 6.72713,-1.1688 6.72713,5.5714 0,6.7902 2.53112,8.7955 10.00676,7.9278 5.51543,-0.6401 5.92256,-0.5367 7.52704,1.912 1.39089,2.1228 2.47269,2.5888 6.00978,2.5888 4.64407,0 7.45642,1.8874 7.45642,5.004 0,3.0742 21.4499,3.9663 26.77986,1.1138 2.91059,-1.5577 7.4724,-1.3942 9.77901,0.3504 2.86814,2.1693 4.21998,1.8601 5.87703,-1.3442 1.56527,-3.0269 6.10875,-5.3179 13.04569,-6.5782 6.44306,-1.1705 8.02674,-2.3266 6.10137,-4.4541 -2.40858,-2.6615 -1.91371,-5.4259 1.66704,-9.3124 1.7875,-1.9402 4.16714,-5.0467 5.2881,-6.9034 1.91356,-3.1696 2.36978,-3.3759 7.46645,-3.3759 h 5.42836 l 2.61901,-5 c 2.93727,-5.60759 7.82238,-8.88143 12.07108,-8.08963 2.9601,0.55166 4.958,-1.21586 9.319,-8.24441 2.8355,-4.56986 10.1869,-8.79144 17.558,-10.08273 l 3.5,-0.61314 0.6747,-8.11976 c 0.783,-9.42197 4.0364,-16.94032 8.7977,-20.33066 7.1899,-5.11968 3.7833,-7.44402 -10.9724,-7.48653 -10.6453,-0.0307 -12.0202,-0.26323 -18.5,-3.12911 -3.85,-1.70279 -9.0794,-3.85531 -11.6208,-4.78339 -10.36289,-3.78423 -17.67981,-16.79052 -12.8792,-22.89351 2.54983,-3.24158 2.51008,-3.53528 -1.04064,-7.68936 -5.60933,-6.56249 -1.9785,-17.60192 7.80104,-23.7189 1.5068,-0.94245 2.9104,-1.83305 3.1192,-1.97911 0.2087,-0.14606 -0.4663,-2.9414 -1.5,-6.21187 l -1.8796,-5.94631 -6.42529,-0.68916 c -9.36459,-1.00441 -12.49741,-4.26111 -11.53199,-11.988 0.64714,-5.17954 0.56079,-5.50442 -1.46303,-5.50442 -1.60994,0 -2.65697,-1.18093 -4.16387,-4.69637 -3.20747,-7.48274 -1.57354,-8.89909 15.61213,-13.53318 16.12205,-4.34728 14.53365,-3.166 17.84785,-13.27386 4.0465,-12.34137 3.6748,-14.09345 -3.4787,-16.39529 -5.6802,-1.82772 -8.27814,-5.22376 -7.6394,-9.98603 0.6423,-4.78861 -1.04233,-6.95897 -8.22783,-10.60013 -5.9157,-2.99772 -6.30913,-4.1019 -4.60983,-12.93766 1.49348,-7.76556 2.65775,-9.06214 8.99003,-10.01172 6.71863,-1.00752 8.33483,-2.61678 6.82413,-6.7946 -0.6788,-1.87724 -1.2342,-4.16871 -1.2342,-5.09216 0,-1.24894 -0.8875,-1.679 -3.46482,-1.679 -3.97549,0 -5.51327,-1.98212 -5.5737,-7.18426 -0.0305,-2.62693 -0.70567,-3.73406 -3.25,-5.32941 -4.32095,-2.70932 -4.90166,-8.36136 -1.38325,-13.46311 l 2.39775,-3.47677 -2.97089,-2.77523 c -2.31442,-2.16199 -2.83236,-3.32722 -2.34394,-5.27323 0.61215,-2.439 0.49602,-2.49799 -4.91708,-2.49799 -3.04922,0 -7.93079,-0.83888 -10.84793,-1.86417 -5.65273,-1.98677 -7.48122,-1.58892 -13.20858,2.87396 -4.80799,3.7465 -5.76669,5.68223 -4.03714,8.1515 6.04368,8.62857 -6.1068,20.84441 -21.07478,21.18813 -8.7922,0.20191 -10.02731,-12.78413 -1.42974,-15.03245 1.23565,-0.32313 2.66854,-2.59997 4.09043,-6.49964 l 2.18854,-6.00228 -2.08743,-2.22198 c -4.64528,-4.94467 1.57229,-19.56513 13.04978,-30.68625 7.64146,-7.4042 14.03667,-19.05719 15.8642,-28.90682 1.1391,-6.13927 2.89003,-8 7.52794,-8 2.73968,0 3.92824,-1.00329 9.18117,-7.75 3.31874,-4.2625 9.69154,-11.64412 14.16177,-16.4036 8.9253,-9.50283 9.4078,-10.28357 5.41673,-8.76619 -11.75142,4.46788 -9.46796,-14.76489 2.33867,-19.69802 5.4094,-2.26019 18.4911,-1.52338 19.8462,1.11781 1.7099,3.3329 6.9939,0.97415 14.8624,-6.63452 l 6.8611,-6.63452 -1.7689,-2.69979 c -3.2072,-4.89471 -3.1686,-16.86879 0.077,-24.03117 4.4727,-9.86952 4.8484,-12.80584 2.3742,-18.55729 -3.3793,-7.85532 -1.6344,-15.37087 5.3265,-22.94271 7.6337,-8.30365 7.6013,-8.22533 7.5672,-18.26142 -0.054,-15.9665 2.0119,-20.59306 20.5061,-45.9187 12.6115,-17.27 12.2149,-15.40066 4.2532,-20.04845 -7.7869,-4.54575 -12.5381,-5.7152 -23.3487,-5.74698 -9.6245,-0.0283 -11.3382,-0.72384 -14.6295,-5.9376 -3.4213,-5.41971 -7.1627,-6.04081 -10.7336,-1.78184 -3.2696,3.89968 -8.9244,4.23099 -15.4253,0.90374 -2.8004,-1.43328 -4.4294,-1.77523 -5.1282,-1.07647 -2.2828,2.28286 -6.7143,0.53303 -7.894,-3.11712 -1.0561,-3.26731 -7.3737,-6.59922 -7.3737,-3.88886 0,7.86348 -13.41069,5.74722 -17.02591,-2.68676 -1.02019,-2.37998 -4.36421,-7.05677 -7.43116,-10.39285 -4.44938,-4.83981 -5.45705,-6.54069 -4.98626,-8.41647 0.50941,-2.02962 0.14486,-2.43991 -2.6677,-3.00243 -1.79175,-0.35835 -3.96226,-1.28636 -4.82335,-2.06225 -0.86109,-0.77588 -3.36562,-2.062 -5.56562,-2.85803 -2.2,-0.79604 -5.60343,-2.15179 -7.56317,-3.01278 -3.08004,-1.35319 -3.89358,-1.37665 -6,-0.17303 -9.11959,5.21099 -15.35434,4.12746 -23.5797,-4.09791 -4.48806,-4.48806 -8.89424,-4.64712 -13.62674,-0.49193 -4.21462,3.70048 -7.66523,4.57478 -12.17773,3.08552 -3.43174,-1.13258 -3.92888,-1.90774 -4.76373,-7.42784 -0.19362,-1.28027 -1.60839,-2.26987 -4.28893,-3 -3.2884,-0.89571 -4.34654,-1.83517 -5.94797,-5.28082 -1.20586,-2.59453 -2.80914,-4.40742 -4.20843,-4.75862 -1.24325,-0.31203 -5.31666,-2.8807 -9.05203,-5.70815 -6.29905,-4.76801 -8.04776,-5.58565 -15.52892,-7.26078 -4.83506,-1.08263 -6.29635,-4.65329 -4.34541,-10.61795 l 1.64738,-5.03658 -3.53231,-3.3314 c -4.56848,-4.30862 -4.58126,-7.54141 -0.0579,-14.64158 C 845.47676,290.6713 845.79733,289 843,289 c -3.58833,0 -7.99361,6.13244 -10.93143,15.21727 -2.21857,6.86066 -5.27294,8.38187 -18.40613,9.16704 -18.57122,1.11029 -28.10473,-6.19584 -20.57521,-15.76808 l 2.08724,-2.65349 -3.08724,-3.51617 c -3.82447,-4.35583 -4.00413,-8.44125 -0.61332,-13.94657 3.56969,-5.79572 3.28397,-7.21718 -1.72391,-8.57659 -4.02466,-1.09251 -21.82205,-1.59334 -28.20896,-0.79382 -2.95829,0.37033 -2.95932,0.36858 -4.5,-7.62959 l -1.54104,-8 -4.88216,-0.0469 c -4.08649,-0.0392 -5.23618,-0.49084 -7.0543,-2.77098 -2.13236,-2.67424 -2.23161,-2.69445 -5.42049,-1.10362 -6.23374,3.10979 -10.19191,-0.43046 -11.57801,-10.35555 -2.57414,-18.43193 -9.01874,-26.78425 -14.50919,-18.80415 -5.41699,7.87332 -7.33376,7.54392 -27.5071,-4.72716 -10.45915,-6.36212 -11.16465,-7.58704 -7.34521,-12.75311 2.19789,-2.97279 2.19899,-2.99773 0.42794,-9.7095 -2.77736,-10.52546 -3.80923,-11.67784 -8.40874,-9.39088 -3.33527,1.65836 -13.5742,3.89457 -26.22274,5.72711 -12.90382,1.86952 -22.40882,5.26554 -26,9.28947 -1.925,2.15697 -4.97911,4.66719 -6.78691,5.57827 -2.92817,1.47571 -3.22681,2.00635 -2.73622,4.86174 0.30289,1.76288 0.54544,5.68023 0.53901,8.70523 -0.006,3.025 -2.6e-4,12.32156 0.0137,20.65902 0.0168,10.03558 -0.51033,17.75272 -1.55972,22.83314 -1.53384,7.42578 -1.51855,7.80187 0.4725,11.62177 3.9268,7.53373 2.39733,12.41356 -3.83948,12.25002 -3.77504,-0.099 -4.07759,0.11688 -5.62829,4.01572 -4.21325,10.59313 -3.3126,9.75279 -26.00762,24.26592 -1.11816,0.71505 -5.32953,1.76761 -9.3586,2.33904 -5.29863,0.75148 -9.16323,2.0733 -13.96698,4.77716 -6.06945,3.41628 -7.30256,3.73821 -14.31862,3.73821 h -7.67722 l -2.92638,4 c -4.16169,5.6885 -5.97546,7.0695 -12.47327,9.49705 -6.40387,2.39247 -6.52555,2.54757 -10.16085,12.95261 C 496.81272,360.74693 497.23769,363 503.0466,363 c 6.98514,0 4.17746,11.62212 -3.23021,13.37115 -1.47598,0.34849 -3.65138,1.99274 -4.83421,3.65388 -5.29332,7.43377 -20.78106,10.2833 -32.48218,5.97626 -9.72291,-3.57888 -16.52801,-4.96905 -24.40561,-4.98567 -6.20451,-0.0131 -7.90748,-0.39554 -10.5,-2.35809 -5.57125,-4.21747 -12.7898,-4.26212 -16.94711,-0.10481 C 405.45007,383.74993 399,382.6073 399,376.48939 c 0,-1.32491 -1.75939,-4.40057 -3.99467,-6.98323 -5.69284,-6.57757 -6.25861,-15.98811 -1.38149,-22.97867 0.75689,-1.08487 1.37616,-2.32237 1.37616,-2.75 0,-1.35948 -11.58128,-0.83651 -16,0.72251 -6.61231,2.33296 -10.96901,1.88371 -18.0993,-1.86633 -3.52038,-1.85148 -8.2007,-3.68902 -10.4007,-4.08342 l -4,-0.71708 2.62781,2.83341 C 353.44083,345.31705 354,347.35879 354,358.45671 v 10.58819 l 7.63006,8.15884 c 10.20973,10.91728 11.30506,13.53776 11.40958,27.29626 0.046,6.05 0.63435,17.81366 1.30754,26.14146 l 1.22398,15.14147 3.71442,4.11141 c 6.97698,7.72269 3.69795,12.91145 -7.42471,11.74891 -4.27091,-0.4464 -7.94064,-0.13483 -12.39656,1.0525 -7.73386,2.06079 -11.17191,1.01627 -12.11105,-3.67946 l -0.60116,-3.00581 -3.41085,2.99476 c -2.8663,2.51665 -4.25284,2.99476 -8.68492,2.99476 -3.08921,0 -6.07821,0.60822 -7.2152,1.4682 -2.80085,2.11845 -7.16531,1.91569 -8.3994,-0.39022 -3.27166,-6.11315 -7.52086,-6.61967 -12.83637,-1.53015 C 293.73338,473.48958 288.71083,475.51444 284,470.5 c -1.29175,-1.375 -2.93481,-2.5 -3.65126,-2.5 -2.65316,0 -4.64892,-4.79332 -3.99182,-9.58739 l 0.62154,-4.5346 -4.38703,-1.94059 c -6.48544,-2.86882 -10.94892,-8.34707 -10.25997,-12.59256 0.82698,-5.09607 -10.88303,-4.08208 -20.86361,1.80661 -3.4452,2.03272 -7.61793,2.17299 -11.71785,0.39392 -1.48519,-0.64446 -1.75,-0.20869 -1.75,2.87974 0,10.08052 -4.71569,13.66726 -14.84474,11.29089 l -6.34475,-1.48854 -3.28727,2.88626 C 199.36278,460.76667 197.21181,460.74447 192.5,457 c -2.07626,-1.65 -4.05063,-2.99749 -4.3875,-2.99442 -2.74239,0.025 -8.18617,2.44394 -10.11107,4.4929 -2.56623,2.73162 -5.63191,3.1262 -10.52947,1.35522 -4.79493,-1.73387 -8.31504,-0.28554 -14.20516,5.84464 -5.17975,5.39086 -5.4758,5.54486 -9.57829,4.98255 -6.6278,-0.90844 -8.29569,1.21684 -6.03879,7.69484 0.74265,2.13165 1.35028,4.95998 1.35028,6.28518 0,2.07228 0.27068,2.2646 1.93426,1.37427 2.49572,-1.33566 17.46319,-1.33024 22.282,0.008 10.96671,3.04577 8.25549,15.07291 -3.05945,13.57193 -4.06018,-0.5386 -5.04027,-0.36126 -5.56532,1.00698 -0.54114,1.41021 -0.40047,1.46419 0.93258,0.35785 2.46706,-2.04748 13.03714,3.3225 14.43546,7.33373 3.28648,9.42759 1.46563,11.29214 -11.95953,12.24654 l -10.5,0.74646 3.59097,1.59663 c 3.41998,1.5206 9.26343,5.87281 14.66193,10.92023 2.21426,2.07027 2.41471,2.85524 1.83842,7.19948 l -0.6468,4.87588 3.64766,0.6843 c 3.29684,0.61849 3.89211,0.37196 6.18927,-2.56327 2.32555,-2.9715 2.89475,-3.19916 6.69584,-2.67817 3.33776,0.45749 4.48333,0.18505 5.82868,-1.38621 3.83358,-4.47729 11.55003,-1.71732 13.51258,4.8331 1.25677,4.19473 4.6432,5.21128 17.36026,5.21128 5.19694,0 10.66414,2.40123 11.6723,5.12654 0.54108,1.46268 1.06541,1.81754 1.54323,1.04443 1.69287,-2.73914 6.75455,-1.23528 12.04629,3.57903 2.87158,2.6125 8.68122,6.71845 12.91031,9.12433 l 7.68926,4.37434 2.43215,-2.62434 c 5.96866,-6.44029 21.25695,-1.34518 19.22931,6.40853 -0.52918,2.02359 -0.32664,2.11331 3.11618,1.38025 8.7528,-1.86367 10.47264,-1.35171 12.96145,3.85834 3.67888,7.70134 3.85504,10.23617 0.90159,12.97333 l -2.54613,2.35968 2.22843,3.94777 c 2.01079,3.56222 2.57021,3.918 5.72802,3.64291 2.35352,-0.20502 4.34047,0.35657 6.06723,1.71484 2.18816,1.72121 3.00944,1.85293 5.55713,0.89128 5.45242,-2.05806 6.56265,-0.73075 6.1087,7.30307 l -0.40011,7.08099 5.7158,2.88533 c 11.03222,5.56904 12.09867,12.0939 3.36005,20.55773 -6.31601,6.11741 -6.45406,6.59206 -2.80025,9.62823 12.84838,10.67652 19.39162,19.32413 21.39489,28.2757 1.59322,7.11926 5.21784,10.74306 13.50333,13.50029 4.47575,1.48943 7.1474,3.05656 8.63033,5.06232 1.62611,2.19944 2.96009,2.90508 5.49188,2.90508 4.12721,0 9.19795,2.07017 11.55338,4.71676 1.541,1.73148 2.27492,1.85898 5.59692,0.97229 7.63357,-2.03752 9.69001,2.74895 4.0965,9.53484 l -3.03301,3.67957 3.40432,4.79827 c 9.14384,12.8879 7.33993,33.13825 -3.61682,40.60167 -4.12608,2.81057 -2.68326,6.63863 3.45359,9.16299 10.30611,4.23937 22.11482,14.1294 29.3689,24.59705 5.18948,7.48841 10.04413,38.3976 6.2572,39.8391 -4.22742,1.60918 -8.76187,-5.28709 -13.28512,-20.20483 -2.94084,-9.69893 -6.16502,-14.24839 -12.70113,-17.92189 -2.19883,-1.23582 -4.55623,-3.31258 -5.23865,-4.61504 -2.63049,-5.02047 -5.81234,6.0944 -6.6813,23.33922 -0.41571,8.25 -1.19985,17.925 -1.74252,21.5 -0.54267,3.575 -1.29815,11.5625 -1.67885,17.75 L 397.78141,874 h 5.10929 c 11.71093,0 13.32454,13.05443 1.65351,13.37712 -6.40879,0.17719 -6.74498,0.87565 -7.61514,15.82112 -0.42596,7.31597 -1.71101,19.15176 -2.85568,26.30176 -5.14119,32.11373 -6.44047,39.25142 -7.82734,43 -0.81393,2.2 -1.80517,7.72512 -2.20275,12.27805 -0.61618,7.05634 -1.11547,8.68784 -3.38308,11.05472 -1.56752,1.63614 -2.66022,3.91077 -2.66022,5.53773 0,4.7227 -1.85642,6.6165 -10.55879,10.7712 -4.6334,2.2121 -8.69189,4.4549 -9.01888,4.984 -1.22722,1.9857 1.63204,3.7397 5.16222,3.1669 2.47405,-0.4015 4.00402,-0.07 5.36641,1.163 1.20026,1.0862 2.66256,1.4845 3.95027,1.0757 2.20518,-0.6998 10.30596,2.4412 13.31223,5.1619 2.44129,2.2093 2.24536,5.0629 -0.80509,11.726 -3.84436,8.3972 -0.87531,12.3504 3.83244,5.1028 3.96561,-6.1051 7.75919,-5.3415 7.75919,1.5619 0,3.6758 0.18071,3.8862 4.25,4.9485 2.3375,0.6102 6.5,1.7688 9.25,2.5746 2.75,0.8058 8.6,1.7325 13,2.0593 9.01708,0.6697 11.27783,2.027 14.71383,8.8337 4.28596,8.4904 5.43922,8.8518 14.26071,4.4686 11.60224,-5.7649 16.29055,-4.172 27.24581,9.2567 3.07911,3.7744 6.74982,4.4768 12.24864,2.344 8.34697,-3.2374 9.47961,-3.1588 12.55399,0.8719 2.75562,3.6128 2.7813,3.6219 4.87362,1.7103 3.4897,-3.1881 6.30126,-3.5273 10.19515,-1.2299 1.96176,1.1575 5.2696,2.0784 7.46541,2.0784 H 531 v -4.5497 c 0,-15.5065 13.55561,-17.5239 32.95018,-4.9039 3.44014,2.2386 8.76754,4.1645 18.01357,6.5123 8.96692,2.277 15.39151,12.3734 13.11646,20.613 -1.38245,5.0068 -0.90519,5.3055 5.14006,3.2173 12.83438,-4.4333 26.19131,-1.6197 32.09896,6.7616 3.70337,5.254 3.58247,5.2473 13.10808,0.7236 9.46349,-4.4942 13.0766,-4.241 18.7666,1.3151 3.12394,3.0505 4.83559,3.879 9.07796,4.3942 9.16488,1.113 8.72813,1.2345 8.72813,-2.4285 z M 404.26903,880.34406 c -0.67703,-0.27392 -2.02703,-0.29059 -3,-0.0371 -0.97297,0.25354 -0.41903,0.47766 1.23097,0.49804 1.65,0.0204 2.44606,-0.18706 1.76903,-0.46099 z M 155.94806,528.49352 C 153.30384,525.84929 147,523.43732 147,525.06981 c 0,0.5116 0.5752,0.93019 1.27822,0.93019 0.70302,0 2.84052,1.10293 4.75,2.45096 4.52858,3.19703 6.09718,3.21989 2.91984,0.0426 z M 1049,529.5 c 0,-0.825 -0.4359,-1.5 -0.9686,-1.5 -0.5328,0 -0.7096,0.675 -0.393,1.5 0.3166,0.825 0.7524,1.5 0.9686,1.5 0.2161,0 0.393,-0.675 0.393,-1.5 z m -906.75,-4.53116 c -2.78226,-1.11833 -2.86839,-2.5657 -0.25,-4.20091 2.82057,-1.76148 2.49244,-2.94942 -0.44499,-1.61104 -4.51472,2.05705 -4.29945,6.89008 0.30198,6.77972 2.5774,-0.0618 2.58715,-0.0858 0.39301,-0.96777 z m 905.0951,-0.51197 c -0.3257,-0.84872 -0.8066,-1.32866 -1.0688,-1.06653 -0.2621,0.26213 -0.18,0.95654 0.1826,1.54313 0.986,1.59546 1.5624,1.28551 0.8862,-0.4766 z m -1.1296,-7.47155 c 0.279,-1.90091 0.041,-2.9066 -0.6347,-2.68523 -0.5945,0.19466 -1.2253,1.82809 -1.4018,3.62984 -0.4023,4.1053 1.4193,3.26034 2.0365,-0.94461 z M 156,518 c 0,-0.55 -1.32344,-1 -2.94098,-1 -1.61754,0 -3.2191,0.45 -3.55902,1 -0.3678,0.59512 0.82295,1 2.94098,1 1.95746,0 3.55902,-0.45 3.55902,-1 z m 9,-1.10504 c 0,-1.02708 -2.47924,-1.1412 -5.75,-0.26467 -3.66655,0.98259 -2.56506,1.95261 1.75,1.5411 2.2,-0.2098 4,-0.78419 4,-1.27643 z m 2.70573,-6.14496 c -0.23835,-1.2375 -0.43337,-0.225 -0.43337,2.25 0,2.475 0.19502,3.4875 0.43337,2.25 0.23836,-1.2375 0.23836,-3.2625 0,-4.5 z M 156.61543,505 c 1.38383,0 3.41142,0.47918 4.50575,1.06485 1.09433,0.58567 2.52725,0.88171 3.18426,0.65786 0.65701,-0.22385 -0.81148,-1.4349 -3.26332,-2.69123 -2.91513,-1.49372 -4.58781,-1.89442 -4.83333,-1.15785 -0.61333,1.83998 -4.20143,1.31673 -4.27647,-0.62363 -0.0543,-1.40371 -0.28031,-1.30948 -1.1422,0.4762 -1.39063,2.88115 0.92601,6.53244 2.43446,3.83699 C 153.70572,505.70343 155.2316,505 156.61543,505 Z M 1054,502.43728 c 0,-0.41099 -0.9,0.0672 -2,1.06272 -1.1,0.99549 -2,2.47592 -2,3.28985 0,0.95225 0.7131,0.57336 2,-1.06272 1.1,-1.39842 2,-2.87885 2,-3.28985 z m 4.5749,-4.18728 c 1.4288,-2.17686 1.8423,-5.04256 1.9841,-13.75 0.2579,-15.84465 2.0926,-19.66358 23.0035,-47.8838 10.3929,-14.02557 10.4076,-14.24485 1.3524,-20.10262 C 1076.3723,410.98739 1069.3273,409 1058.2804,409 h -8.2994 l -2.7405,-3.9233 c -4.8825,-6.9898 -13.0956,-8.46906 -17.0824,-3.0767 -2.6874,3.63489 -4.1134,3.69958 -10.9894,0.49856 -3.9897,-1.85732 -5.7976,-2.23234 -7.1843,-1.49023 -2.6635,1.42545 -2.8101,1.34449 -4.3827,-2.4191 -2.4062,-5.75903 -13.82075,-7.37419 -14.76485,-2.08923 -0.94312,5.27946 -6.69917,2.67862 -10.44901,-4.72134 -1.35088,-2.66583 -4.33396,-6.72478 -6.62908,-9.0199 -3.41218,-3.41218 -4.12235,-4.75997 -3.8955,-7.39301 C 972.15742,371.95146 970.09798,370 966.2006,370 c -1.06199,0 -3.00407,-0.83456 -4.31574,-1.85457 -1.31167,-1.02002 -4.18486,-2.43405 -6.38486,-3.14229 -2.2,-0.70825 -4.88763,-1.89869 -5.97251,-2.64543 C 946.6782,360.39649 940.97097,360.70126 937.5,363 c -5.29614,3.50749 -10.328,2.09026 -18.22766,-5.13387 -5.96055,-5.45084 -13.46939,-5.18261 -18.89813,0.6751 -4.03574,4.35464 -9.01037,3.04162 -9.54286,-2.51877 -0.34794,-3.63332 -2.48432,-5.35489 -8.05605,-6.49186 -2.03686,-0.41564 -2.93371,-1.37324 -3.55265,-3.7933 -0.61937,-2.42176 -1.97437,-3.8671 -5.37873,-5.7373 -2.50293,-1.375 -7.01771,-4.41011 -10.03283,-6.74468 -3.88462,-3.00781 -7.04472,-4.54104 -10.84479,-5.26171 -7.24023,-1.37308 -7.99544,-2.59477 -5.41772,-8.76411 1.97502,-4.7269 1.21648,-7.6645 -2.55429,-9.89194 -3.90997,-2.30968 -3.81137,-4.64769 0.48011,-11.3839 4.05262,-6.36126 4.38182,-9.24053 1.30309,-11.39696 -5.74576,-4.02448 -12.63388,1.2911 -17.21777,13.28701 -3.66784,9.59864 -3.62053,9.57344 -18.05798,9.61821 C 796.08436,309.50972 790.31711,305.54793 797,299.5 c 2.79384,-2.52839 2.49534,-5.49603 -0.95936,-9.53777 -3.66429,-4.28694 -3.76689,-6.90767 -0.46576,-11.89602 5.74973,-8.68842 1.50679,-12.66647 -15.15661,-14.21036 -5.84276,-0.54135 -10.83997,-0.76748 -11.10492,-0.50253 -0.26495,0.26495 2.14365,0.74119 5.35246,1.05832 22.71485,2.24489 25.59913,4.37063 19.33419,14.24941 -3.76365,5.93466 -3.74963,6.25247 0.5,11.33895 4.17271,4.99441 4.21296,5.36398 1,9.18237 -3.22128,3.82827 -3.16524,4.35239 0.9,8.41763 l 3.4,3.4 h 11.16574 c 14.6521,0 16.42986,-0.94939 19.66156,-10.5 3.26063,-9.6361 8.87735,-15.34311 13.86768,-14.09062 3.99293,1.00217 4.06818,4.12811 0.25085,10.4206 -5.23802,8.63435 -5.26362,8.926 -1.11665,12.72448 3.44512,3.1556 3.60784,3.58091 2.92442,7.64354 -1.6348,9.71813 -0.8567,10.98605 7.53561,12.27923 2.19085,0.33759 6.08688,2.49262 10,5.53133 3.52594,2.73805 7.77328,5.43312 9.43854,5.98906 2.12632,0.70985 3.61494,2.27088 5,5.24322 1.71626,3.68309 2.55633,4.3708 6.47225,5.2984 4.12122,0.97623 4.50515,1.32835 4.56113,4.18332 0.13562,6.91626 6.8769,8.65515 12.24967,3.15976 4.59632,-4.70123 13.12271,-4.80645 17.0078,-0.20989 6.04188,7.1483 12.29742,8.83951 19.36307,5.23489 2.42139,-1.2353 5.17058,-1.89272 6.71016,-1.60461 3.63002,0.6793 15.27682,5.63358 17.18691,7.31092 0.86831,0.7625 2.36039,1.38637 3.31574,1.38637 3.72615,0 5.76845,1.98171 5.11384,4.96212 -0.53071,2.41632 0.0141,3.41741 3.78136,6.94838 2.42078,2.26893 5.66066,6.6142 7.19974,9.65614 4.12053,8.14408 12.51058,11.09366 12.51058,4.39818 0,-4.67665 11.3965,-1.98881 12.4798,2.94332 0.6587,2.99885 2.9917,4.756 4.0472,3.04819 0.9187,-1.48643 3.8535,-1.13831 8.6138,1.02171 6.0658,2.75244 8.5838,2.54145 11.6721,-0.97804 4.2629,-4.85805 11.3121,-3.76993 15.0807,2.32789 2.8844,4.66702 3.8183,4.97361 17.1064,5.61609 l 11.5,0.55602 8.25,4.8926 c 9.8066,5.81571 9.9191,6.30015 3.4361,14.79763 -23.2119,30.42494 -27.1521,38.46149 -27.1742,55.42491 -0.01,7.69615 -0.3345,9.52532 -2.0845,11.75 -1.1399,1.44917 -1.6417,2.63486 -1.115,2.63486 0.5267,0 1.7698,-1.2375 2.7625,-2.75 z m -898.96154,-1.34631 c 4.0283,1.11227 8.96068,-2.24419 7.78814,-5.29979 -1.32666,-3.45721 -20.97954,-5.84163 -25.58299,-3.1039 -1.17882,0.70106 1.04067,0.89357 7.42449,0.64399 11.30866,-0.44213 17.02017,0.9935 16.56886,4.16469 -0.28376,1.99387 -0.81905,2.16894 -5.94075,1.94293 -4.24901,-0.18749 -5.96502,0.15907 -7,1.41372 -1.24365,1.5076 -1.16059,1.54993 0.89346,0.45541 1.62476,-0.86577 3.27722,-0.9271 5.84879,-0.21705 z m -22.69621,-10.77693 c -0.47865,-2.13028 -1.33081,-5.08457 -1.89371,-6.5651 C 132.16206,472.03565 134.79655,468 142.57096,468 c 4.97157,0 5.4411,-0.22742 8.53521,-4.13404 5.34536,-6.74907 13.46532,-9.50329 18.42901,-6.25095 2.29358,1.50281 2.6449,1.48544 5.05675,-0.25 8.5081,-6.12197 14.65195,-7.02048 19.59044,-2.86501 3.73815,3.14545 4.87884,3.13172 7.89332,-0.095 2.58653,-2.76866 1.63163,-2.71853 15.21364,-0.79868 5.57312,0.78777 7.04891,-0.93628 7.71067,-9.0078 0.5503,-6.71205 0.54518,-6.70907 8.68719,-5.04238 2.34852,0.48075 4.58518,-0.0221 8.5,-1.91095 13.25075,-6.39335 24.39364,-6.00411 23.37085,0.81638 -0.76413,5.09555 0.7881,7.1032 8.56717,11.08073 5.225,2.67161 6.08122,4.07134 4.96891,8.1231 -0.77464,2.82173 0.47538,7.33461 2.0316,7.33461 0.44258,0 2.34225,1.35 4.2215,3 4.75742,4.17707 6.39254,3.46238 18.69102,-8.16962 5.10639,-4.82965 14.84747,-6.13169 14.984,-2.00283 0.0122,0.36985 0.83301,1.72651 1.82396,3.0148 l 1.80173,2.34236 3.42603,-2.08862 c 2.25443,-1.37437 5.12148,-2.08989 8.38388,-2.09235 4.3657,-0.003 5.41057,-0.44582 8.74851,-3.70523 4.23985,-4.14011 5.54181,-3.77825 6.68803,1.85884 0.84287,4.14523 3.15777,4.65274 11.08147,2.42946 4.10089,-1.15065 6.92026,-1.35899 10.17134,-0.75162 9.12864,1.70541 11.30286,-1.74198 5.10281,-8.09091 -3.46768,-3.55095 -3.7604,-4.30698 -3.88814,-10.04216 -0.076,-3.41117 -0.61629,-11.37712 -1.20071,-17.70212 -0.58441,-6.325 -0.97225,-15.55 -0.86186,-20.5 0.24244,-10.8714 -0.52427,-12.5726 -10.30866,-22.87301 -8.50304,-8.9515 -9.33185,-10.965 -8.49063,-20.62699 0.75382,-8.65812 -0.19059,-12.01516 -4.69362,-16.68409 -6.81062,-7.06154 1.65473,-8.75777 14.05332,-2.81591 8.07278,3.86878 12.02699,4.27113 19.54923,1.98918 12.72592,-3.86055 19.34346,-1.27582 15.73728,6.14677 -4.27175,8.79255 -4.07702,14.01988 0.73941,19.84842 2.26291,2.73843 4.11438,5.73791 4.11438,6.66551 0,5.64707 4.39048,6.55163 8.44012,1.73891 3.39328,-4.03268 13.77898,-4.03221 19.21044,8.7e-4 2.66068,1.97567 4.52657,2.3789 12,2.59333 7.1362,0.20474 10.97903,0.97444 19.84944,3.97574 15.42526,5.21911 26.66838,3.73103 32.37644,-4.28521 1.12468,-1.57946 4.0479,-3.63672 6.49604,-4.57167 6.3735,-2.43406 7.36166,-7.00243 1.76722,-8.17004 -6.94276,-1.44902 -7.48265,-4.2325 -3.15055,-16.24323 4.19641,-11.63454 4.88572,-12.51036 11.84279,-15.04703 5.72103,-2.08599 9.30495,-5.07746 13.18263,-11.00343 1.3722,-2.09704 2.32073,-2.32981 10.09074,-2.47636 7.85863,-0.14823 9.02875,-0.44346 13.98543,-3.52866 3.86073,-2.40304 7.41318,-3.65797 12.40926,-4.38367 8.0797,-1.17359 9.78525,-1.94012 22.08362,-9.92507 8.91977,-5.79132 9.15147,-6.04265 12.84485,-13.93291 l 3.76122,-8.0352 3.81472,0.6445 c 5.04683,0.85265 6.16878,-1.86643 2.93146,-7.10452 -1.98874,-3.21784 -2.12186,-4.2364 -1.3377,-10.23485 0.93587,-7.15886 1.69471,-32.67796 1.51159,-50.83335 l -0.11268,-11.17196 3.3585,-1.10841 c 1.84718,-0.60962 4.76212,-2.85501 6.47764,-4.98975 4.15352,-5.1685 11.86934,-7.57596 38.53999,-12.02509 6.97832,-1.1641 13.29058,-2.81693 15.31124,-4.00915 5.34691,-3.15475 7.86394,-1.12137 10.86881,8.78033 1.84229,6.07077 1.83323,12.30275 -0.0215,14.75487 -2.28492,3.02094 -1.89694,3.73679 3.71922,6.86227 2.88694,1.60663 8.14621,4.89132 11.68727,7.29931 8.31056,5.65137 11.3089,5.55946 15.34745,-0.47045 4.84988,-7.24129 12.28971,-5.13071 14.26556,4.04696 0.37927,1.76167 1.36412,4.52212 2.18857,6.13433 0.82444,1.61221 1.85577,5.80815 2.29183,9.32432 1.18222,9.53276 4.65224,12.40267 9.9683,8.24439 3.31838,-2.59568 3.47455,-2.55575 5.8675,1.5 2.00838,3.40395 6.17176,4.86352 7.54322,2.64446 0.29082,-0.47055 -0.56845,-0.6458 -1.90948,-0.38945 -1.97117,0.37682 -2.8463,-0.22553 -4.56851,-3.14446 -2.47418,-4.19341 -3.89227,-4.43967 -8.0147,-1.39183 -4.31241,3.18831 -6.14621,1.64885 -7.52727,-6.31905 -2.29119,-13.21875 -6.52033,-23.39819 -10.59677,-25.5062 -4.02553,-2.08168 -7.08251,-0.85665 -10.71211,4.29271 -3.83056,5.43445 -6.38673,5.42868 -13.94454,-0.0315 -2.55054,-1.84266 -6.99938,-4.65627 -9.88632,-6.25247 -5.78979,-3.20119 -5.97839,-3.63685 -3.62057,-8.36321 1.53501,-3.07701 1.50522,-3.73617 -0.50904,-11.26196 -3.47603,-12.98733 -6.41992,-15.7217 -12.76252,-11.85419 -2.90458,1.77112 -12.73611,3.97347 -24.85889,5.56862 -13.91877,1.83147 -24.77008,5.74705 -29.49028,10.64125 -2.48035,2.57178 -5.40629,4.83702 -6.50211,5.03386 -3.32996,0.59818 -4.39533,4.48762 -3.37831,12.33345 0.49905,3.85 0.57107,8.8 0.16003,11 -0.41104,2.2 -0.76318,10.525 -0.78254,18.5 -0.0194,7.975 -0.42366,17.66802 -0.89843,21.54004 -0.75752,6.17795 -0.61193,7.53265 1.18898,11.06271 2.44783,4.79815 1.87314,6.02055 -2.79734,5.95007 -3.38552,-0.0511 -3.62543,0.20165 -7.33472,7.72684 -3.83695,7.78419 -8.32875,11.67036 -24.33255,21.05185 -0.64199,0.37634 -4.85237,1.32759 -9.35638,2.11389 -5.01783,0.876 -9.60013,2.36147 -11.83273,3.83589 -5.69769,3.76277 -10.62293,5.01421 -16.73083,4.25108 -5.14199,-0.64245 -5.56323,-0.52204 -8.16721,2.33446 -1.51007,1.65652 -4.11506,4.50165 -5.78886,6.32251 -1.68741,1.83565 -5.30925,4.11574 -8.12924,5.11767 -12.67633,4.50381 -20.79399,30.41852 -10.20674,32.58385 5.1167,1.04648 4.78908,4.91979 -0.57317,6.77624 -2.17383,0.7526 -5.2466,2.93843 -6.82837,4.8574 -6.38402,7.74492 -15.52715,8.91742 -30.46681,3.90704 -8.10643,-2.7187 -13.09016,-3.7468 -20.25239,-4.17792 -7.30798,-0.43989 -10.12663,-1.03415 -12.21574,-2.57546 -5.35358,-3.94977 -18.13724,-4.29211 -19.33516,-0.51779 -1.74324,5.49246 -6.64104,4.6423 -7.37259,-1.27974 -0.0421,-0.34066 -1.93431,-2.95268 -4.20496,-5.80449 -4.68106,-5.87916 -4.88552,-10.28439 -0.863,-18.5938 4.31647,-8.9166 -2.79089,-12.06696 -18.00851,-7.98238 -8.0211,2.15295 -10.38296,1.88617 -17.70603,-2 -6.99885,-3.71411 -15.58805,-4.80592 -18.09397,-2.3 -1.74223,1.74223 -1.60143,2.0722 2.8,6.56234 4.33299,4.42031 4.48583,5.07259 4.06021,17.32815 -0.3246,9.34691 1.34228,13.03912 9.43979,20.90951 7.91852,7.69642 9.8361,11.78522 9.61261,20.49662 -0.18142,7.07136 1.67893,40.06951 2.49631,44.27859 0.24301,1.25137 2.00542,4.00591 3.91646,6.1212 5.1666,5.71881 4.71905,6.50901 -3.26434,5.76351 -4.79951,-0.44819 -8.38624,-0.1671 -12.46269,0.9767 -6.47124,1.81574 -8.79835,1.37377 -8.79835,-1.67098 0,-6.44318 -4.16728,-7.62007 -8.73067,-2.46564 -2.70988,3.06086 -3.68638,3.5 -7.78287,3.5 -2.57631,0 -6.24116,0.73882 -8.1441,1.64183 l -3.4599,1.64183 -2.69123,-3.20941 c -4.67166,-5.57116 -9.97472,-5.4713 -15.8267,0.29801 -2.58173,2.54526 -5.21072,4.62774 -5.8422,4.62774 -0.63148,0 -2.44153,1.35 -4.02233,3 -3.26565,3.4086 -5.04768,3.71932 -7.67815,1.33878 -1.00959,-0.91367 -2.84502,-2.1713 -4.07874,-2.79472 -1.85077,-0.93525 -2.25643,-2.00022 -2.31925,-6.08878 -0.0419,-2.72541 -0.15438,-5.52345 -0.25,-6.21789 -0.0956,-0.69444 -2.53636,-2.31696 -5.42386,-3.60562 -7.37012,-3.28919 -9.48116,-5.85637 -8.01339,-9.74493 2.79939,-7.41644 -8.48272,-9.09365 -21.99345,-3.26957 -6.00192,2.58725 -7.35505,2.76696 -16.24316,2.15716 l -4,-0.27443 -0.5,6.21492 c -0.68909,8.56531 -2.25506,10.03136 -9.04173,8.46481 -7.80692,-1.80206 -10.68142,-1.51335 -13.14522,1.32027 -2.60727,2.99863 -3.93755,3.1249 -6.23036,0.59138 -4.48589,-4.95686 -12.29702,-4.72697 -18.56403,0.54637 -2.37091,1.99499 -3.69395,2.42928 -5.79547,1.90236 -9.64379,-2.41803 -16.41081,-0.23058 -21.07373,6.81212 -2.48967,3.7603 -2.66142,3.83752 -7.19713,3.23583 -8.26521,-1.09641 -11.86791,4.09558 -9.02947,13.01272 0.50758,1.59457 1.20297,4.58672 1.54532,6.64922 0.34234,2.0625 1.00422,3.75 1.47084,3.75 0.46661,0 0.45677,-1.74296 -0.0219,-3.87324 z M 765.5746,264.87929 c 0.62378,-1.0093 -1.6621,-1.16668 -3.98707,-0.27451 -0.86682,0.33264 -1.35318,0.96539 -1.08079,1.40612 0.58831,0.95191 4.29118,0.12509 5.06786,-1.13161 z M 761,256.94098 C 761,256.42344 760.55,256 760,256 c -0.55,0 -1,0.70156 -1,1.55902 0,0.85746 0.45,1.2809 1,0.94098 0.55,-0.33992 1,-1.04148 1,-1.55902 z m -3.3694,-7.46123 c -0.33906,-0.88358 -1.0915,-1.31293 -1.6721,-0.9541 -0.72494,0.44804 -0.68251,1.10197 0.13544,2.08754 1.45303,1.7508 2.38084,1.06645 1.53666,-1.13344 z"
       id="path1" />
  </g>
</svg>
